<?xml version="1.0" encoding="UTF-8"?>
<svg version="1.1" xmlns="http://www.w3.org/2000/svg" width="318" height="213">
<path d="M0 0 C5.97377817 5.17434609 11.05838129 10.53857964 14.28125 17.86328125 C15.044375 17.59515625 15.8075 17.32703125 16.59375 17.05078125 C17.810625 16.65890625 19.0275 16.26703125 20.28125 15.86328125 C21.09335938 15.59902344 21.90546875 15.33476563 22.7421875 15.0625 C33.8371968 11.70856452 42.68548469 11.95916014 53.28125 16.86328125 C54.27125 17.52328125 55.26125 18.18328125 56.28125 18.86328125 C56.28125 19.52328125 56.28125 20.18328125 56.28125 20.86328125 C57.60125 21.52328125 58.92125 22.18328125 60.28125 22.86328125 C60.28125 23.52328125 60.28125 24.18328125 60.28125 24.86328125 C60.94125 24.86328125 61.60125 24.86328125 62.28125 24.86328125 C66.86042567 32.35647779 70.58297292 39.9068747 70.28125 48.86328125 C71.13783203 49.04503906 71.13783203 49.04503906 72.01171875 49.23046875 C82.21696411 52.07599327 89.39770358 59.73458285 94.9296875 68.40234375 C101.89081399 81.07722725 103.75964145 97.91689449 99.8984375 111.93359375 C99.69476563 112.57039063 99.49109375 113.2071875 99.28125 113.86328125 C99.00667969 114.81847656 99.00667969 114.81847656 98.7265625 115.79296875 C96.24850686 123.41069535 91.41785979 130.75642295 86.28125 136.86328125 C85.62125 136.86328125 84.96125 136.86328125 84.28125 136.86328125 C84.28125 137.52328125 84.28125 138.18328125 84.28125 138.86328125 C81.98046875 140.80859375 81.98046875 140.80859375 78.96875 142.98828125 C77.98261719 143.71273437 76.99648438 144.4371875 75.98046875 145.18359375 C73.28125 146.86328125 73.28125 146.86328125 70.28125 146.86328125 C70.28125 147.52328125 70.28125 148.18328125 70.28125 148.86328125 C67.74009998 149.82300299 65.19835543 150.78109619 62.65625 151.73828125 C61.94339844 152.00769531 61.23054687 152.27710938 60.49609375 152.5546875 C59.79355469 152.81894531 59.09101563 153.08320313 58.3671875 153.35546875 C57.7282959 153.5963623 57.0894043 153.83725586 56.43115234 154.08544922 C55.72168457 154.34213379 55.0122168 154.59881836 54.28125 154.86328125 C53.38970215 155.20464111 52.4981543 155.54600098 51.57958984 155.89770508 C47.99998405 156.94562076 45.08270544 157.10417885 41.35791016 157.09033203 C40.36173172 157.09077011 40.36173172 157.09077011 39.34542847 157.09121704 C37.17025263 157.08983386 34.99542782 157.07432113 32.8203125 157.05859375 C31.30431302 157.05486001 29.78831111 157.05201474 28.27230835 157.05001831 C24.29715218 157.04241027 20.32214394 157.02278635 16.3470459 157.00061035 C12.2847697 156.98009073 8.22246942 156.97100355 4.16015625 156.9609375 C-3.79954678 156.93953756 -11.75912995 156.9054361 -19.71875 156.86328125 C-19.38875 157.85328125 -19.05875 158.84328125 -18.71875 159.86328125 C-18.65134135 161.42446553 -18.63360544 162.98830645 -18.65625 164.55078125 C-18.66527344 165.35902344 -18.67429688 166.16726562 -18.68359375 167 C-18.70099609 167.92232422 -18.70099609 167.92232422 -18.71875 168.86328125 C-20.36875 169.19328125 -22.01875 169.52328125 -23.71875 169.86328125 C-23.77933594 169.00863281 -23.83992187 168.15398437 -23.90234375 167.2734375 C-23.98613281 166.16871094 -24.06992188 165.06398437 -24.15625 163.92578125 C-24.23746094 162.82363281 -24.31867188 161.72148437 -24.40234375 160.5859375 C-24.42293084 157.95218222 -24.42293084 157.95218222 -25.71875 156.86328125 C-27.90514453 156.79069179 -30.09375389 156.77954342 -32.28125 156.80078125 C-34.07755859 156.81431641 -34.07755859 156.81431641 -35.91015625 156.828125 C-37.30041016 156.84552734 -37.30041016 156.84552734 -38.71875 156.86328125 C-38.70714844 157.56195313 -38.69554687 158.260625 -38.68359375 158.98046875 C-38.67457031 159.89054688 -38.66554687 160.800625 -38.65625 161.73828125 C-38.63884766 163.09566406 -38.63884766 163.09566406 -38.62109375 164.48046875 C-38.71875 166.86328125 -38.71875 166.86328125 -39.71875 168.86328125 C-40.70875 168.86328125 -41.69875 168.86328125 -42.71875 168.86328125 C-43.92119106 166.45839914 -43.78737279 164.97278094 -43.71875 162.30078125 C-43.68089574 160.82209904 -43.67245827 159.34172337 -43.71875 157.86328125 C-44.88373378 156.46946422 -44.88373378 156.46946422 -48.11645508 156.765625 C-49.6570929 156.77252885 -51.19771199 156.78469008 -52.73828125 156.80078125 C-54.46402919 156.80955711 -56.18977794 156.8181764 -57.91552734 156.82666016 C-58.83114441 156.83288391 -59.74676147 156.83910767 -60.69012451 156.84552002 C-75.23095757 156.9364217 -89.76876873 156.91501972 -104.30575562 156.54589844 C-105.81123539 156.50798685 -107.31679416 156.47307365 -108.82241821 156.44140625 C-120.09833174 156.19772277 -131.17553047 155.68600126 -141.71875 151.36328125 C-142.770625 150.94046875 -143.8225 150.51765625 -144.90625 150.08203125 C-147.22298187 149.07811411 -149.47880402 148.02633013 -151.71875 146.86328125 C-151.71875 146.20328125 -151.71875 145.54328125 -151.71875 144.86328125 C-152.8634375 144.43015625 -152.8634375 144.43015625 -154.03125 143.98828125 C-156.71875 142.86328125 -156.71875 142.86328125 -159.71875 140.86328125 C-159.71875 140.20328125 -159.71875 139.54328125 -159.71875 138.86328125 C-160.37875 138.86328125 -161.03875 138.86328125 -161.71875 138.86328125 C-161.71875 138.20328125 -161.71875 137.54328125 -161.71875 136.86328125 C-162.37875 136.86328125 -163.03875 136.86328125 -163.71875 136.86328125 C-163.71875 136.20328125 -163.71875 135.54328125 -163.71875 134.86328125 C-164.37875 134.86328125 -165.03875 134.86328125 -165.71875 134.86328125 C-175.23306703 122.87771304 -178.89419548 111.58053473 -178.90625 96.48828125 C-178.91849609 95.6890625 -178.93074219 94.88984375 -178.94335938 94.06640625 C-178.97119928 82.59636545 -175.60647106 72.60847474 -169.71875 62.86328125 C-169.05875 62.86328125 -168.39875 62.86328125 -167.71875 62.86328125 C-167.71875 62.20328125 -167.71875 61.54328125 -167.71875 60.86328125 C-167.05875 60.86328125 -166.39875 60.86328125 -165.71875 60.86328125 C-165.47125 60.24453125 -165.22375 59.62578125 -164.96875 58.98828125 C-163.51246361 56.51259438 -162.34062494 55.91203123 -159.71875 54.86328125 C-159.71875 54.20328125 -159.71875 53.54328125 -159.71875 52.86328125 C-157.51422458 51.56472518 -155.30551704 50.2743993 -153.09375 48.98828125 C-152.47628906 48.62347656 -151.85882813 48.25867188 -151.22265625 47.8828125 C-145.99628252 44.85701718 -141.0337935 42.99323527 -135.03125 42.11328125 C-131.24085717 41.33478306 -130.93386367 41.18921105 -128.65625 37.73828125 C-128.346875 36.78953125 -128.0375 35.84078125 -127.71875 34.86328125 C-127.05875 34.86328125 -126.39875 34.86328125 -125.71875 34.86328125 C-125.05875 33.54328125 -124.39875 32.22328125 -123.71875 30.86328125 C-123.05875 30.86328125 -122.39875 30.86328125 -121.71875 30.86328125 C-121.71875 30.20328125 -121.71875 29.54328125 -121.71875 28.86328125 C-113.78646671 25.74912559 -106.20755342 24.86328125 -97.71875 24.86328125 C-97.48542969 24.280625 -97.25210938 23.69796875 -97.01171875 23.09765625 C-94.47484427 17.39641184 -91.3460354 12.92485885 -87.15625 8.36328125 C-86.68533936 7.84733398 -86.21442871 7.33138672 -85.72924805 6.79980469 C-83.26939017 4.20119889 -81.06821476 2.18730496 -77.71875 0.86328125 C-77.71875 0.20328125 -77.71875 -0.45671875 -77.71875 -1.13671875 C-71.42010244 -5.91877221 -64.21368307 -8.81685851 -56.71875 -11.13671875 C-56.038125 -11.36359375 -55.3575 -11.59046875 -54.65625 -11.82421875 C-36.05956392 -17.05453671 -14.96106914 -11.75819658 0 0 Z " fill="#283D46" transform="translate(198.71875,43.13671875)"/>
<path d="M0 0 C6.57142857 4 6.57142857 4 8 8 C9.1446875 7.5978125 9.1446875 7.5978125 10.3125 7.1875 C11.529375 6.795625 12.74625 6.40375 14 6 C15.21816406 5.60361328 15.21816406 5.60361328 16.4609375 5.19921875 C27.5559468 1.84528327 36.40423469 2.09587889 47 7 C47.99 7.66 48.98 8.32 50 9 C50 9.66 50 10.32 50 11 C51.98 11.99 51.98 11.99 54 13 C54 13.66 54 14.32 54 15 C54.66 15 55.32 15 56 15 C60.57917567 22.49319654 64.30172292 30.04359345 64 39 C64.85658203 39.18175781 64.85658203 39.18175781 65.73046875 39.3671875 C75.93571411 42.21271202 83.11645358 49.8713016 88.6484375 58.5390625 C95.60956399 71.213946 97.47839145 88.05361324 93.6171875 102.0703125 C93.41351563 102.70710938 93.20984375 103.34390625 93 104 C92.72542969 104.95519531 92.72542969 104.95519531 92.4453125 105.9296875 C89.96725686 113.5474141 85.13660979 120.8931417 80 127 C79.34 127 78.68 127 78 127 C78 127.66 78 128.32 78 129 C75.69921875 130.9453125 75.69921875 130.9453125 72.6875 133.125 C71.70136719 133.84945312 70.71523438 134.57390625 69.69921875 135.3203125 C67 137 67 137 64 137 C64 137.66 64 138.32 64 139 C61.45884998 139.95972174 58.91710543 140.91781494 56.375 141.875 C55.66214844 142.14441406 54.94929687 142.41382813 54.21484375 142.69140625 C53.51230469 142.95566406 52.80976563 143.21992188 52.0859375 143.4921875 C51.4470459 143.73308105 50.8081543 143.97397461 50.14990234 144.22216797 C49.44043457 144.47885254 48.7309668 144.73553711 48 145 C47.10845215 145.34135986 46.2169043 145.68271973 45.29833984 146.03442383 C41.71873405 147.08233951 38.80145544 147.2408976 35.07666016 147.22705078 C34.08048172 147.22748886 34.08048172 147.22748886 33.06417847 147.22793579 C30.88900263 147.22655261 28.71417782 147.21103988 26.5390625 147.1953125 C25.02306302 147.19157876 23.50706111 147.18873349 21.99105835 147.18673706 C18.01590218 147.17912902 14.04089394 147.1595051 10.0657959 147.1373291 C6.0035197 147.11680948 1.94121942 147.1077223 -2.12109375 147.09765625 C-10.08079678 147.07625631 -18.04037995 147.04215485 -26 147 C-25.67 147.99 -25.34 148.98 -25 150 C-24.93259135 151.56118428 -24.91485544 153.1250252 -24.9375 154.6875 C-24.94652344 155.49574219 -24.95554687 156.30398437 -24.96484375 157.13671875 C-24.97644531 157.75160156 -24.98804688 158.36648437 -25 159 C-26.65 159.33 -28.3 159.66 -30 160 C-30.06058594 159.14535156 -30.12117188 158.29070312 -30.18359375 157.41015625 C-30.26738281 156.30542969 -30.35117188 155.20070312 -30.4375 154.0625 C-30.51871094 152.96035156 -30.59992188 151.85820312 -30.68359375 150.72265625 C-30.70418084 148.08890097 -30.70418084 148.08890097 -32 147 C-34.18639453 146.92741054 -36.37500389 146.91626217 -38.5625 146.9375 C-40.35880859 146.95103516 -40.35880859 146.95103516 -42.19140625 146.96484375 C-43.58166016 146.98224609 -43.58166016 146.98224609 -45 147 C-44.98839844 147.69867188 -44.97679687 148.39734375 -44.96484375 149.1171875 C-44.95582031 150.02726563 -44.94679688 150.93734375 -44.9375 151.875 C-44.92589844 152.77992188 -44.91429687 153.68484375 -44.90234375 154.6171875 C-45 157 -45 157 -46 159 C-46.99 159 -47.98 159 -49 159 C-50.20244106 156.59511789 -50.06862279 155.10949969 -50 152.4375 C-49.96214574 150.95881779 -49.95370827 149.47844212 -50 148 C-51.16498378 146.60618297 -51.16498378 146.60618297 -54.39770508 146.90234375 C-55.9383428 146.90926955 -57.47896178 146.92142945 -59.01953125 146.9375 C-60.7462559 146.94608751 -62.4729812 146.95454526 -64.19970703 146.96289062 C-65.11544495 146.96909424 -66.03118286 146.97529785 -66.97467041 146.98168945 C-82.53403088 147.08208322 -98.07231911 146.97566475 -113.625 146.5 C-114.41170074 146.47599121 -115.19840149 146.45198242 -116.00894165 146.42724609 C-120.33959247 146.29317269 -124.66989015 146.15066827 -129 146 C-129 145.67 -129 145.34 -129 145 C-116.79 145 -104.58 145 -92 145 C-92 137.74 -92 130.48 -92 123 C-90.35 123 -88.7 123 -87 123 C-87 130.26 -87 137.52 -87 145 C-81.72 145 -76.44 145 -71 145 C-71 141.7 -71 138.4 -71 135 C-69.35 135 -67.7 135 -66 135 C-66 138.3 -66 141.6 -66 145 C-60.72 145 -55.44 145 -50 145 C-50 118.6 -50 92.2 -50 65 C-48.02 65 -46.04 65 -44 65 C-44 91.4 -44 117.8 -44 145 C-39.71 145 -35.42 145 -31 145 C-31 136.42 -31 127.84 -31 119 C-29.02 119 -27.04 119 -25 119 C-25 127.58 -25 136.16 -25 145 C-20.71 145 -16.42 145 -12 145 C-12 129.82 -12 114.64 -12 99 C-10.35 99 -8.7 99 -7 99 C-7 114.18 -7 129.36 -7 145 C-1.06 145 4.88 145 11 145 C11 139.72 11 134.44 11 129 C12.65 129 14.3 129 16 129 C16 134.28 16 139.56 16 145 C22.93 145 29.86 145 37 145 C37 137.08 37 129.16 37 121 C25.45 121 13.9 121 2 121 C2 119.02 2 117.04 2 115 C13.88 115 25.76 115 38 115 C37.67 105.1 37.34 95.2 37 85 C36.34 86.98 35.68 88.96 35 91 C33.81640625 93.08203125 33.81640625 93.08203125 32.5625 94.8125 C32.15128906 95.39644531 31.74007812 95.98039062 31.31640625 96.58203125 C30 98 30 98 27 99 C23.92385037 96.89921489 22.07585603 95.11378405 20 92 C19.34 91.67 18.68 91.34 18 91 C19.33333333 87 20.66666667 83 22 79 C20.02 79.99 20.02 79.99 18 81 C17.67 88.59 17.34 96.18 17 104 C15.02 104 13.04 104 11 104 C11 91.13 11 78.26 11 65 C6.05 65 1.1 65 -4 65 C-8.92505731 62.20913419 -10.82433819 59.12620105 -13 54 C-13.35644531 50.67260742 -13.35644531 50.67260742 -13.328125 47.10546875 C-13.32296875 45.82091797 -13.3178125 44.53636719 -13.3125 43.21289062 C-13.3021875 42.55264893 -13.291875 41.89240723 -13.28125 41.2121582 C-13.24981879 39.17575952 -13.24024633 37.14013396 -13.234375 35.10351562 C-13.15409729 25.15409729 -13.15409729 25.15409729 -12 24 C-10.33382885 23.95936168 -8.66611905 23.957279 -7 24 C-6.505 22.515 -6.505 22.515 -6 21 C-6.721875 21.103125 -7.44375 21.20625 -8.1875 21.3125 C-11 21 -11 21 -13.875 18.9375 C-16 16 -16 16 -15.875 12.25 C-15 9 -15 9 -14 8 C-5.61832061 7.58778626 -5.61832061 7.58778626 -2 10 C-2.99 8.02 -2.99 8.02 -4 6 C-3.01 5.34 -2.02 4.68 -1 4 C-0.27617533 1.94074861 -0.27617533 1.94074861 0 0 Z " fill="#2C4049" transform="translate(205,53)"/>
<path d="M0 0 C5.40839975 3.16589254 9.04174791 7.17514834 13 12 C12.67 12.66 12.34 13.32 12 14 C11.01 13.34 10.02 12.68 9 12 C8.814375 13.2065625 8.814375 13.2065625 8.625 14.4375 C8.41875 15.283125 8.2125 16.12875 8 17 C7.01 17.495 7.01 17.495 6 18 C6.495 19.485 6.495 19.485 7 21 C6.2575 20.7525 6.2575 20.7525 5.5 20.5 C1.96555911 19.79311182 -1.39690701 19.93994845 -5 20 C-5.93786082 25.05009595 -5.93786082 25.05009595 -5 30 C-3.12612784 30.80212628 -3.12612784 30.80212628 -0.9375 31.1875 C0.16271484 31.42533203 0.16271484 31.42533203 1.28515625 31.66796875 C1.85105469 31.77753906 2.41695312 31.88710937 3 32 C3 33.65 3 35.3 3 37 C2.67 36.34 2.34 35.68 2 35 C-0.475 35.495 -0.475 35.495 -3 36 C-3.12467036 39.983314 -3.21483313 43.96585506 -3.2746582 47.95068359 C-3.31182827 49.96362253 -3.3753997 51.97601837 -3.43945312 53.98828125 C-3.5336093 61.48311316 -3.43135542 67.40189666 2 73 C6.48514885 76.34985579 6.48514885 76.34985579 20 76 C20 88.87 20 101.74 20 115 C21.98 115 23.96 115 26 115 C26 106.75 26 98.5 26 90 C27.66666667 90 29.33333333 90 31 90 C30.25749403 94.08378283 29.17076699 98.01939223 28 102 C29.485 102.495 29.485 102.495 31 103 C31 103.66 31 104.32 31 105 C31.66 105.33 32.32 105.66 33 106 C34.34275169 106.98731742 35.67732273 107.98594743 37 109 C42.63554554 103.58787027 42.63554554 103.58787027 44.625 96.3125 C44.69976562 95.50425781 44.77453125 94.69601563 44.8515625 93.86328125 C44.92503906 92.94095703 44.92503906 92.94095703 45 92 C47.29822325 95.64216695 47.23128602 98.70825007 47.1953125 102.953125 C47.19031738 104.16129883 47.18532227 105.36947266 47.18017578 106.61425781 C47.16196777 108.14405273 47.14375977 109.67384766 47.125 111.25 C47.08375 116.1175 47.0425 120.985 47 126 C35.12 126 23.24 126 11 126 C11 127.98 11 129.96 11 132 C22.55 132 34.1 132 46 132 C46 139.92 46 147.84 46 156 C39.07 156 32.14 156 25 156 C25 150.72 25 145.44 25 140 C23.35 140 21.7 140 20 140 C20 145.28 20 150.56 20 156 C14.06 156 8.12 156 2 156 C2 140.82 2 125.64 2 110 C0.35 110 -1.3 110 -3 110 C-3 125.18 -3 140.36 -3 156 C-7.29 156 -11.58 156 -16 156 C-16 147.42 -16 138.84 -16 130 C-17.98 130 -19.96 130 -22 130 C-22 138.58 -22 147.16 -22 156 C-26.29 156 -30.58 156 -35 156 C-35 129.93 -35 103.86 -35 77 C-33.68 77.33 -32.36 77.66 -31 78 C-31 76.35 -31 74.7 -31 73 C-31.66 73 -32.32 73 -33 73 C-33 72.34 -33 71.68 -33 71 C-32.34 71 -31.68 71 -31 71 C-31.01160156 70.38511719 -31.02320313 69.77023438 -31.03515625 69.13671875 C-31.04417969 68.32847656 -31.05320313 67.52023438 -31.0625 66.6875 C-31.07410156 65.88699219 -31.08570313 65.08648437 -31.09765625 64.26171875 C-31 62 -31 62 -30 59 C-31.485 59.495 -31.485 59.495 -33 60 C-37.14806293 58.98414785 -38.57951094 58.63073358 -41 55 C-41 54.01 -41 53.02 -41 52 C-38.525 51.505 -38.525 51.505 -36 51 C-35.67 40.11 -35.34 29.22 -35 18 C-36.98 18 -38.96 18 -41 18 C-41.33 19.32 -41.66 20.64 -42 22 C-42.98120464 18.94736336 -42.98120464 17.05263664 -42 14 C-39.36 14 -36.72 14 -34 14 C-33.731875 13.401875 -33.46375 12.80375 -33.1875 12.1875 C-32.00082594 10.00152146 -30.90400887 8.58667406 -29 7 C-28.34 7 -27.68 7 -27 7 C-26.34 6.34 -25.68 5.68 -25 5 C-24.34 5.33 -23.68 5.66 -23 6 C-22.67 5.34 -22.34 4.68 -22 4 C-22.02320313 4.69867188 -22.04640625 5.39734375 -22.0703125 6.1171875 C-22.08835938 7.02726562 -22.10640625 7.93734375 -22.125 8.875 C-22.14820313 9.77992187 -22.17140625 10.68484375 -22.1953125 11.6171875 C-22.24324836 14.18806994 -22.24324836 14.18806994 -20 16 C-16.41656024 16.16677282 -16.41656024 16.16677282 -13 16 C-12.83564453 15.15115234 -12.83564453 15.15115234 -12.66796875 14.28515625 C-12.50941406 13.55167969 -12.35085937 12.81820312 -12.1875 12.0625 C-12.03667969 11.33160156 -11.88585937 10.60070312 -11.73046875 9.84765625 C-11.48941406 9.23792969 -11.24835938 8.62820312 -11 8 C-10.01 7.67 -9.02 7.34 -8 7 C-8 7.66 -8 8.32 -8 9 C-6.2925002 7.71937515 -4.62626404 6.38232443 -3 5 C-3 4.34 -3 3.68 -3 3 C-1.5 1.375 -1.5 1.375 0 0 Z M-9 9 C-8 11 -8 11 -8 11 Z " fill="#273C44" transform="translate(196,42)"/>
<path d="M0 0 C0.66 0 1.32 0 2 0 C6.57917567 7.49319654 10.30172292 15.04359345 10 24 C10.57105469 24.12117188 11.14210938 24.24234375 11.73046875 24.3671875 C21.93571411 27.21271202 29.11645358 34.8713016 34.6484375 43.5390625 C41.60956399 56.213946 43.47839145 73.05361324 39.6171875 87.0703125 C39.41351563 87.70710938 39.20984375 88.34390625 39 89 C38.81695312 89.63679688 38.63390625 90.27359375 38.4453125 90.9296875 C35.96725686 98.5474141 31.13660979 105.8931417 26 112 C25.34 112 24.68 112 24 112 C24 112.66 24 113.32 24 114 C21.69921875 115.9453125 21.69921875 115.9453125 18.6875 118.125 C17.70136719 118.84945312 16.71523438 119.57390625 15.69921875 120.3203125 C13 122 13 122 10 122 C10 122.66 10 123.32 10 124 C7.46270379 125.01250775 4.92110512 126.01009573 2.375 127 C1.66214844 127.28617187 0.94929688 127.57234375 0.21484375 127.8671875 C-0.48769531 128.13789063 -1.19023437 128.40859375 -1.9140625 128.6875 C-2.8723999 129.06455078 -2.8723999 129.06455078 -3.85009766 129.44921875 C-6 130 -6 130 -12 130 C-12 121.75 -12 113.5 -12 105 C-6.555 104.505 -6.555 104.505 -1 104 C4.79880219 101.95968071 8.31072277 98.29235174 11.11474609 92.82739258 C12.280999 89.1025236 12.35541099 85.50401108 12.4140625 81.63671875 C12.43342865 80.84473587 12.4527948 80.05275299 12.4727478 79.23677063 C12.53227232 76.72045481 12.57881958 74.20409256 12.625 71.6875 C12.66320481 69.9758921 12.70225799 68.26430291 12.7421875 66.55273438 C12.8379513 62.36864251 12.9220818 58.18446069 13 54 C11.35 54 9.7 54 8 54 C8.01571045 54.99330322 8.0314209 55.98660645 8.04760742 57.01000977 C8.10220199 60.72053818 8.13645656 64.43103158 8.16479492 68.1418457 C8.17981466 69.74314356 8.20023663 71.34440075 8.22631836 72.94555664 C8.26300438 75.25677571 8.27979435 77.56744756 8.29296875 79.87890625 C8.30845261 80.58648575 8.32393646 81.29406525 8.33988953 82.02308655 C8.34201984 88.41777456 6.5778991 92.68246069 3 97.9375 C0 100 0 100 -11 100 C-11 72.61 -11 45.22 -11 17 C-13.31 17 -15.62 17 -18 17 C-17.67 15.68 -17.34 14.36 -17 13 C-15.865625 12.690625 -14.73125 12.38125 -13.5625 12.0625 C-10.21224901 11.37075469 -10.21224901 11.37075469 -9 10 C-8.76924918 8.65252916 -8.58846937 7.29622435 -8.4375 5.9375 C-8.293125 4.638125 -8.14875 3.33875 -8 2 C-6.2984375 1.7834375 -6.2984375 1.7834375 -4.5625 1.5625 C-1.19222799 1.38828522 -1.19222799 1.38828522 0 0 Z " fill="#2C4048" transform="translate(259,68)"/>
<path d="M0 0 C5.40839975 3.16589254 9.04174791 7.17514834 13 12 C12.67 12.66 12.34 13.32 12 14 C11.01 13.34 10.02 12.68 9 12 C8.814375 13.2065625 8.814375 13.2065625 8.625 14.4375 C8.41875 15.283125 8.2125 16.12875 8 17 C7.01 17.495 7.01 17.495 6 18 C6.495 19.485 6.495 19.485 7 21 C6.2575 20.7525 6.2575 20.7525 5.5 20.5 C1.96555911 19.79311182 -1.39690701 19.93994845 -5 20 C-5.93786082 25.05009595 -5.93786082 25.05009595 -5 30 C-3.12612784 30.80212628 -3.12612784 30.80212628 -0.9375 31.1875 C0.16271484 31.42533203 0.16271484 31.42533203 1.28515625 31.66796875 C1.85105469 31.77753906 2.41695312 31.88710937 3 32 C3 33.65 3 35.3 3 37 C2.67 36.34 2.34 35.68 2 35 C-0.475 35.495 -0.475 35.495 -3 36 C-3.04950115 40.76886487 -3.08576738 45.53757959 -3.10986328 50.30664062 C-3.11991023 51.92841192 -3.13355015 53.55016516 -3.15087891 55.171875 C-3.17518493 57.50525374 -3.18649613 59.8383926 -3.1953125 62.171875 C-3.20563507 62.89493835 -3.21595764 63.61800171 -3.22659302 64.36297607 C-3.22741782 68.07798039 -3.06235471 70.84581045 -1 74 C-1.66 74 -2.32 74 -3 74 C-3.33 74.66 -3.66 75.32 -4 76 C-4.99 76 -5.98 76 -7 76 C-7.33 76.66 -7.66 77.32 -8 78 C-8 77.34 -8 76.68 -8 76 C-9.65 75.67 -11.3 75.34 -13 75 C-13 74.34 -13 73.68 -13 73 C-14.485 72.505 -14.485 72.505 -16 72 C-16 66.72 -16 61.44 -16 56 C-17.98 56 -19.96 56 -22 56 C-21.94779297 57.68029297 -21.94779297 57.68029297 -21.89453125 59.39453125 C-21.86639161 60.86717251 -21.83909163 62.33982998 -21.8125 63.8125 C-21.78736328 64.55048828 -21.76222656 65.28847656 -21.73632812 66.04882812 C-21.66093877 71.60251047 -21.66093877 71.60251047 -23.49609375 73.75390625 C-23.99238281 74.16511719 -24.48867187 74.57632813 -25 75 C-25.45086345 77.75885494 -25.18192449 80.18017041 -25 83 C-23.99163938 84.23267348 -23.99163938 84.23267348 -21.93359375 84.09765625 C-21.10988281 84.08605469 -20.28617188 84.07445313 -19.4375 84.0625 C-18.61121094 84.05347656 -17.78492188 84.04445313 -16.93359375 84.03515625 C-16.29550781 84.02355469 -15.65742188 84.01195313 -15 84 C-15 85.65 -15 87.3 -15 89 C-18.465 88.505 -18.465 88.505 -22 88 C-22 94.6 -22 101.2 -22 108 C-18.535 108.495 -18.535 108.495 -15 109 C-15 109.66 -15 110.32 -15 111 C-16.27875 111.12375 -17.5575 111.2475 -18.875 111.375 C-22.34790936 111.69042399 -22.34790936 111.69042399 -25 114 C-25.3176246 115.91006306 -25.3176246 115.91006306 -25.25 118 C-25.25515625 118.70125 -25.2603125 119.4025 -25.265625 120.125 C-25.15705515 122.2435669 -25.15705515 122.2435669 -23 124 C-21.09178939 124.35513379 -21.09178939 124.35513379 -19 124.3125 C-17.948125 124.33763672 -17.948125 124.33763672 -16.875 124.36328125 C-16.25625 124.24339844 -15.6375 124.12351562 -15 124 C-13.06604999 121.09907498 -12.69868059 120.10325263 -12.375 116.8125 C-12.189375 114.9253125 -12.189375 114.9253125 -12 113 C-11.34 113.33 -10.68 113.66 -10 114 C-9.34 113.34 -8.68 112.68 -8 112 C-6 113 -6 113 -4 116 C-3.75949097 117.87931824 -3.75949097 117.87931824 -3.77294922 120.01245117 C-3.77310028 120.81305466 -3.77325134 121.61365814 -3.77340698 122.43852234 C-3.78372955 123.29798965 -3.79405212 124.15745697 -3.8046875 125.04296875 C-3.8075174 125.9265657 -3.81034729 126.81016266 -3.81326294 127.72053528 C-3.82445903 130.54299454 -3.84956249 133.36513662 -3.875 136.1875 C-3.88503054 138.10090688 -3.89415626 140.01431873 -3.90234375 141.92773438 C-3.92439649 146.61861182 -3.95892238 151.30925213 -4 156 C-7.96 156 -11.92 156 -16 156 C-16 147.42 -16 138.84 -16 130 C-17.98 130 -19.96 130 -22 130 C-22 138.58 -22 147.16 -22 156 C-26.29 156 -30.58 156 -35 156 C-35 129.93 -35 103.86 -35 77 C-33.68 77.33 -32.36 77.66 -31 78 C-31 76.35 -31 74.7 -31 73 C-31.66 73 -32.32 73 -33 73 C-33 72.34 -33 71.68 -33 71 C-32.34 71 -31.68 71 -31 71 C-31.01160156 70.38511719 -31.02320313 69.77023438 -31.03515625 69.13671875 C-31.04417969 68.32847656 -31.05320313 67.52023438 -31.0625 66.6875 C-31.07410156 65.88699219 -31.08570313 65.08648437 -31.09765625 64.26171875 C-31 62 -31 62 -30 59 C-31.485 59.495 -31.485 59.495 -33 60 C-37.14806293 58.98414785 -38.57951094 58.63073358 -41 55 C-41 54.01 -41 53.02 -41 52 C-38.525 51.505 -38.525 51.505 -36 51 C-35.67 40.11 -35.34 29.22 -35 18 C-36.98 18 -38.96 18 -41 18 C-41.33 19.32 -41.66 20.64 -42 22 C-42.98120464 18.94736336 -42.98120464 17.05263664 -42 14 C-39.36 14 -36.72 14 -34 14 C-33.731875 13.401875 -33.46375 12.80375 -33.1875 12.1875 C-32.00082594 10.00152146 -30.90400887 8.58667406 -29 7 C-28.34 7 -27.68 7 -27 7 C-26.34 6.34 -25.68 5.68 -25 5 C-24.34 5.33 -23.68 5.66 -23 6 C-22.67 5.34 -22.34 4.68 -22 4 C-22.02320313 4.69867188 -22.04640625 5.39734375 -22.0703125 6.1171875 C-22.08835938 7.02726562 -22.10640625 7.93734375 -22.125 8.875 C-22.14820313 9.77992187 -22.17140625 10.68484375 -22.1953125 11.6171875 C-22.24324836 14.18806994 -22.24324836 14.18806994 -20 16 C-16.41656024 16.16677282 -16.41656024 16.16677282 -13 16 C-12.83564453 15.15115234 -12.83564453 15.15115234 -12.66796875 14.28515625 C-12.50941406 13.55167969 -12.35085937 12.81820312 -12.1875 12.0625 C-12.03667969 11.33160156 -11.88585937 10.60070312 -11.73046875 9.84765625 C-11.48941406 9.23792969 -11.24835938 8.62820312 -11 8 C-10.01 7.67 -9.02 7.34 -8 7 C-8 7.66 -8 8.32 -8 9 C-6.2925002 7.71937515 -4.62626404 6.38232443 -3 5 C-3 4.34 -3 3.68 -3 3 C-1.5 1.375 -1.5 1.375 0 0 Z M-9 9 C-8 11 -8 11 -8 11 Z " fill="#253B43" transform="translate(196,42)"/>
<path d="M0 0 C0.66 0.33 1.32 0.66 2 1 C2.309375 2.155 2.61875 3.31 2.9375 4.5 C3.288125 5.655 3.63875 6.81 4 8 C4.99 8.33 5.98 8.66 7 9 C6.67 9.66 6.34 10.32 6 11 C5.75 14.5 5.75 14.5 6 18 C8.5654594 20.5654594 10.47686668 20.54046087 14 21 C13.360625 21.433125 12.72125 21.86625 12.0625 22.3125 C9.73253997 23.91239177 9.73253997 23.91239177 9 27 C8.74122187 30.68288335 8.76853613 34.37149233 8.75 38.0625 C8.729375 39.06216797 8.70875 40.06183594 8.6875 41.09179688 C8.64671675 48.93747472 9.61503984 56.08185117 13.75 62.875 C20.15857349 68.92754163 25.39263366 69.57494487 34 70 C34 74.62 34 79.24 34 84 C35.65 84 37.3 84 39 84 C39 79.05 39 74.1 39 69 C41.96226563 68.96132812 41.96226563 68.96132812 44.984375 68.921875 C47.57293901 68.86560187 50.16147982 68.80825437 52.75 68.75 C54.70292969 68.72873047 54.70292969 68.72873047 56.6953125 68.70703125 C58.57089844 68.65869141 58.57089844 68.65869141 60.484375 68.609375 C61.63647461 68.58842773 62.78857422 68.56748047 63.97558594 68.54589844 C67.57767277 67.89573165 68.80386337 66.87746411 71 64 C71 63.34 71 62.68 71 62 C70.34 61.67 69.68 61.34 69 61 C70.98 60.34 72.96 59.68 75 59 C75.50660156 59.74056641 75.50660156 59.74056641 76.0234375 60.49609375 C76.46945313 61.13675781 76.91546875 61.77742188 77.375 62.4375 C77.81585938 63.07558594 78.25671875 63.71367187 78.7109375 64.37109375 C79.92160853 66.13740928 79.92160853 66.13740928 82 67 C81.67 75.91 81.34 84.82 81 94 C74.84644257 94.11566837 68.69675291 94.21493592 62.54296875 94.2746582 C60.4559237 94.29958823 58.36896398 94.33354512 56.28222656 94.37719727 C40.78539235 94.69292855 29.96301232 93.07740953 16 86 C16 85.34 16 84.68 16 84 C15.236875 83.71125 14.47375 83.4225 13.6875 83.125 C11 82 11 82 8 80 C8 79.34 8 78.68 8 78 C7.34 78 6.68 78 6 78 C6 77.34 6 76.68 6 76 C5.34 76 4.68 76 4 76 C4 75.34 4 74.68 4 74 C3.34 74 2.68 74 2 74 C-7.51431703 62.01443179 -11.17544548 50.71725348 -11.1875 35.625 C-11.19974609 34.82578125 -11.21199219 34.0265625 -11.22460938 33.203125 C-11.25244928 21.7330842 -7.88772106 11.74519349 -2 2 C-1.34 2 -0.68 2 0 2 C0 1.34 0 0.68 0 0 Z " fill="#283E47" transform="translate(31,104)"/>
<path d="M0 0 C1.32 0 2.64 0 4 0 C4 27.39 4 54.78 4 83 C12.61417489 82.69561255 12.61417489 82.69561255 19 79 C22.89163025 73.579515 23.16573643 68.69058036 23.31640625 62.171875 C23.3475779 61.04836639 23.3475779 61.04836639 23.37937927 59.90216064 C23.44457088 57.51819712 23.50361783 55.13412688 23.5625 52.75 C23.60571416 51.13019746 23.64932937 49.51040557 23.69335938 47.890625 C23.80022096 43.92719168 23.90157333 39.9636514 24 36 C25.65 36 27.3 36 29 36 C29.09948577 40.98041064 29.17175686 45.96023252 29.21972656 50.94140625 C29.2397406 52.63291511 29.26696073 54.32435567 29.30175781 56.015625 C29.35073065 58.45850554 29.37307033 60.90046511 29.390625 63.34375 C29.41127014 64.08991577 29.43191528 64.83608154 29.45318604 65.6048584 C29.45588902 72.04769261 27.46510022 77.20621975 23.18359375 82.05859375 C22.60738281 82.51363281 22.03117188 82.96867187 21.4375 83.4375 C20.85871094 83.91058594 20.27992188 84.38367188 19.68359375 84.87109375 C16.28373048 87.15081646 13.27438345 87.10911039 9.3125 87.0625 C8.31863281 87.05347656 7.32476562 87.04445313 6.30078125 87.03515625 C5.54152344 87.02355469 4.78226563 87.01195312 4 87 C4.03552979 87.78238037 4.07105957 88.56476074 4.10766602 89.37084961 C4.26462454 92.89285206 4.41366811 96.41514519 4.5625 99.9375 C4.61857422 101.16919922 4.67464844 102.40089844 4.73242188 103.66992188 C4.78076172 104.83974609 4.82910156 106.00957031 4.87890625 107.21484375 C4.9260376 108.29886475 4.97316895 109.38288574 5.02172852 110.49975586 C5 113 5 113 4 114 C1.88318683 114.0942174 -0.23680758 114.11742761 -2.35571289 114.11352539 C-3.01910172 114.11367142 -3.68249054 114.11381744 -4.36598206 114.1139679 C-6.56823956 114.11326881 -8.77041345 114.10547665 -10.97265625 114.09765625 C-12.49580336 114.09579206 -14.01895107 114.09436816 -15.542099 114.09336853 C-19.55837651 114.08954346 -23.57461808 114.07971328 -27.59088135 114.06866455 C-31.68623366 114.05845019 -35.78159176 114.05387086 -39.87695312 114.04882812 C-47.91798528 114.038091 -55.95898817 114.02101472 -64 114 C-63.67 114.99 -63.34 115.98 -63 117 C-62.93259135 118.56118428 -62.91485544 120.1250252 -62.9375 121.6875 C-62.94652344 122.49574219 -62.95554687 123.30398437 -62.96484375 124.13671875 C-62.97644531 124.75160156 -62.98804688 125.36648437 -63 126 C-64.65 126.33 -66.3 126.66 -68 127 C-68.06058594 126.14535156 -68.12117188 125.29070312 -68.18359375 124.41015625 C-68.30927734 122.75306641 -68.30927734 122.75306641 -68.4375 121.0625 C-68.55931641 119.40927734 -68.55931641 119.40927734 -68.68359375 117.72265625 C-68.70418084 115.08890097 -68.70418084 115.08890097 -70 114 C-72.18639453 113.92741054 -74.37500389 113.91626217 -76.5625 113.9375 C-77.76003906 113.94652344 -78.95757812 113.95554687 -80.19140625 113.96484375 C-81.58166016 113.98224609 -81.58166016 113.98224609 -83 114 C-82.98839844 114.69867188 -82.97679687 115.39734375 -82.96484375 116.1171875 C-82.95582031 117.02726562 -82.94679688 117.93734375 -82.9375 118.875 C-82.92589844 119.77992188 -82.91429687 120.68484375 -82.90234375 121.6171875 C-83 124 -83 124 -84 126 C-84.99 126 -85.98 126 -87 126 C-88.20244106 123.59511789 -88.06862279 122.10949969 -88 119.4375 C-87.96214574 117.95881779 -87.95370827 116.47844212 -88 115 C-89.16498378 113.60618297 -89.16498378 113.60618297 -92.39770508 113.90234375 C-93.9383428 113.90926955 -95.47896178 113.92142945 -97.01953125 113.9375 C-98.7462559 113.94608751 -100.4729812 113.95454526 -102.19970703 113.96289062 C-103.11544495 113.96909424 -104.03118286 113.97529785 -104.97467041 113.98168945 C-120.53403088 114.08208322 -136.07231911 113.97566475 -151.625 113.5 C-152.41170074 113.47599121 -153.19840149 113.45198242 -154.00894165 113.42724609 C-158.33959247 113.29317269 -162.66989015 113.15066827 -167 113 C-167 112.67 -167 112.34 -167 112 C-154.79 112 -142.58 112 -130 112 C-130 104.74 -130 97.48 -130 90 C-128.35 90 -126.7 90 -125 90 C-125 97.26 -125 104.52 -125 112 C-119.72 112 -114.44 112 -109 112 C-109 108.7 -109 105.4 -109 102 C-107.35 102 -105.7 102 -104 102 C-104 105.3 -104 108.6 -104 112 C-98.72 112 -93.44 112 -88 112 C-88 85.6 -88 59.2 -88 32 C-86.02 32 -84.04 32 -82 32 C-82 58.4 -82 84.8 -82 112 C-77.71 112 -73.42 112 -69 112 C-69 103.42 -69 94.84 -69 86 C-67.02 86 -65.04 86 -63 86 C-63 94.58 -63 103.16 -63 112 C-58.71 112 -54.42 112 -50 112 C-50 96.82 -50 81.64 -50 66 C-48.35 66 -46.7 66 -45 66 C-45 81.18 -45 96.36 -45 112 C-39.06 112 -33.12 112 -27 112 C-27 106.72 -27 101.44 -27 96 C-25.35 96 -23.7 96 -22 96 C-22 101.28 -22 106.56 -22 112 C-15.07 112 -8.14 112 -1 112 C-1 104.08 -1 96.16 -1 88 C-12.55 88 -24.1 88 -36 88 C-36 86.02 -36 84.04 -36 82 C-24.12 82 -12.24 82 0 82 C0 54.94 0 27.88 0 0 Z " fill="#B6C0C3" transform="translate(243,86)"/>
<path d="M0 0 C0.66 0 1.32 0 2 0 C6.57917567 7.49319654 10.30172292 15.04359345 10 24 C10.5775 24.12375 11.155 24.2475 11.75 24.375 C15.82826404 25.50785112 17.60388152 26.40582229 20 30 C20.33 30.33 20.66 30.66 21 31 C21.04080783 32.99958364 21.04254356 35.00045254 21 37 C20.01 37.33 19.02 37.66 18 38 C18 37.34 18 36.68 18 36 C17.01 36.33 16.02 36.66 15 37 C14.67 36.34 14.34 35.68 14 35 C9.61895002 35.50069143 7.04382539 36.78224173 4 40 C3.24984805 43.04308291 3.24984805 43.04308291 4 46 C6.36531886 48.98235856 9.01795061 49.2795153 12.625 49.75 C15.93929167 50.11808827 15.93929167 50.11808827 19 49 C19.05437607 50.58294782 19.09296271 52.16644256 19.125 53.75 C19.14820313 54.63171875 19.17140625 55.5134375 19.1953125 56.421875 C18.99139502 59.1135858 18.36551721 60.69904974 17 63 C16.67 61.35 16.34 59.7 16 58 C15.01 57.67 14.02 57.34 13 57 C13 56.01 13 55.02 13 54 C11.35 54 9.7 54 8 54 C8.01571045 54.99330322 8.0314209 55.98660645 8.04760742 57.01000977 C8.10220199 60.72053818 8.13645656 64.43103158 8.16479492 68.1418457 C8.17981466 69.74314356 8.20023663 71.34440075 8.22631836 72.94555664 C8.26300438 75.25677571 8.27979435 77.56744756 8.29296875 79.87890625 C8.30845261 80.58648575 8.32393646 81.29406525 8.33988953 82.02308655 C8.34201984 88.41777456 6.5778991 92.68246069 3 97.9375 C0 100 0 100 -11 100 C-11 72.61 -11 45.22 -11 17 C-13.31 17 -15.62 17 -18 17 C-17.67 15.68 -17.34 14.36 -17 13 C-15.865625 12.690625 -14.73125 12.38125 -13.5625 12.0625 C-10.21224901 11.37075469 -10.21224901 11.37075469 -9 10 C-8.76924918 8.65252916 -8.58846937 7.29622435 -8.4375 5.9375 C-8.293125 4.638125 -8.14875 3.33875 -8 2 C-6.2984375 1.7834375 -6.2984375 1.7834375 -4.5625 1.5625 C-1.19222799 1.38828522 -1.19222799 1.38828522 0 0 Z " fill="#263A44" transform="translate(259,68)"/>
<path d="M0 0 C0.33 0.99 0.66 1.98 1 3 C2.11375 2.835 3.2275 2.67 4.375 2.5 C8 2 8 2 10 2 C10 2.66 10 3.32 10 4 C10.66 4 11.32 4 12 4 C12.0809313 6.60478883 12.14045434 9.20706653 12.1875 11.8125 C12.21263672 12.55048828 12.23777344 13.28847656 12.26367188 14.04882812 C12.33906123 19.60251047 12.33906123 19.60251047 10.50390625 21.75390625 C10.00761719 22.16511719 9.51132813 22.57632813 9 23 C8.54913655 25.75885494 8.81807551 28.18017041 9 31 C10.00836062 32.23267348 10.00836062 32.23267348 12.06640625 32.09765625 C12.89011719 32.08605469 13.71382812 32.07445312 14.5625 32.0625 C15.38878906 32.05347656 16.21507812 32.04445312 17.06640625 32.03515625 C17.70449219 32.02355469 18.34257812 32.01195312 19 32 C19 33.65 19 35.3 19 37 C15.535 36.505 15.535 36.505 12 36 C12 42.6 12 49.2 12 56 C15.465 56.495 15.465 56.495 19 57 C19 57.66 19 58.32 19 59 C17.72125 59.12375 16.4425 59.2475 15.125 59.375 C11.65209064 59.69042399 11.65209064 59.69042399 9 62 C8.6823754 63.91006306 8.6823754 63.91006306 8.75 66 C8.74484375 66.70125 8.7396875 67.4025 8.734375 68.125 C8.84294485 70.2435669 8.84294485 70.2435669 11 72 C12.90821061 72.35513379 12.90821061 72.35513379 15 72.3125 C16.051875 72.33763672 16.051875 72.33763672 17.125 72.36328125 C17.74375 72.24339844 18.3625 72.12351562 19 72 C20.93395001 69.09907498 21.30131941 68.10325263 21.625 64.8125 C21.810625 62.9253125 21.810625 62.9253125 22 61 C22.66 61.33 23.32 61.66 24 62 C24.66 61.34 25.32 60.68 26 60 C28 61 28 61 30 64 C30.24050903 65.87931824 30.24050903 65.87931824 30.22705078 68.01245117 C30.22689972 68.81305466 30.22674866 69.61365814 30.22659302 70.43852234 C30.21627045 71.29798965 30.20594788 72.15745697 30.1953125 73.04296875 C30.1924826 73.9265657 30.18965271 74.81016266 30.18673706 75.72053528 C30.17554097 78.54299454 30.15043751 81.36513662 30.125 84.1875 C30.11496946 86.10090688 30.10584374 88.01431873 30.09765625 89.92773438 C30.07560351 94.61861182 30.04107762 99.30925213 30 104 C26.04 104 22.08 104 18 104 C18 95.42 18 86.84 18 78 C16.02 78 14.04 78 12 78 C12 86.58 12 95.16 12 104 C7.71 104 3.42 104 -1 104 C-1 77.93 -1 51.86 -1 25 C0.32 25.33 1.64 25.66 3 26 C3 24.35 3 22.7 3 21 C2.34 21 1.68 21 1 21 C1 20.34 1 19.68 1 19 C1.66 19 2.32 19 3 19 C2.98839844 18.38511719 2.97679687 17.77023438 2.96484375 17.13671875 C2.95582031 16.32847656 2.94679687 15.52023438 2.9375 14.6875 C2.92589844 13.88699219 2.91429687 13.08648437 2.90234375 12.26171875 C3 10 3 10 4 7 C3.01 7.33 2.02 7.66 1 8 C-3.14806293 6.98414785 -4.57951094 6.63073358 -7 3 C-7 2.01 -7 1.02 -7 0 C-2.25 -1.125 -2.25 -1.125 0 0 Z " fill="#213940" transform="translate(162,94)"/>
<path d="M0 0 C1.32 0 2.64 0 4 0 C4 27.39 4 54.78 4 83 C12.61417489 82.69561255 12.61417489 82.69561255 19 79 C22.89163025 73.579515 23.16573643 68.69058036 23.31640625 62.171875 C23.33718735 61.42286926 23.35796844 60.67386353 23.37937927 59.90216064 C23.44457088 57.51819712 23.50361783 55.13412688 23.5625 52.75 C23.60571416 51.13019746 23.64932937 49.51040557 23.69335938 47.890625 C23.80022096 43.92719168 23.90157333 39.9636514 24 36 C25.65 36 27.3 36 29 36 C29.09948577 40.98041064 29.17175686 45.96023252 29.21972656 50.94140625 C29.2397406 52.63291511 29.26696073 54.32435567 29.30175781 56.015625 C29.35073065 58.45850554 29.37307033 60.90046511 29.390625 63.34375 C29.41127014 64.08991577 29.43191528 64.83608154 29.45318604 65.6048584 C29.45588902 72.04769261 27.46510022 77.20621975 23.18359375 82.05859375 C22.60738281 82.51363281 22.03117187 82.96867187 21.4375 83.4375 C20.85871094 83.91058594 20.27992188 84.38367188 19.68359375 84.87109375 C16.28373048 87.15081646 13.27438345 87.10911039 9.3125 87.0625 C8.31863281 87.05347656 7.32476562 87.04445313 6.30078125 87.03515625 C5.54152344 87.02355469 4.78226563 87.01195312 4 87 C4.05329468 88.17357056 4.05329468 88.17357056 4.10766602 89.37084961 C4.26462454 92.89285206 4.41366811 96.41514519 4.5625 99.9375 C4.64661133 101.78504883 4.64661133 101.78504883 4.73242188 103.66992188 C4.78076172 104.83974609 4.82910156 106.00957031 4.87890625 107.21484375 C4.9260376 108.29886475 4.97316895 109.38288574 5.02172852 110.49975586 C5 113 5 113 4 114 C2.00041636 114.04080783 -0.00045254 114.04254356 -2 114 C-1.34 113.67 -0.68 113.34 0 113 C0 104.42 0 95.84 0 87 C-11.88 87 -23.76 87 -36 87 C-36 85.35 -36 83.7 -36 82 C-24.12 82 -12.24 82 0 82 C0 54.94 0 27.88 0 0 Z " fill="#F8FBFB" transform="translate(243,86)"/>
<path d="M0 0 C1.65 0 3.3 0 5 0 C5 17.16 5 34.32 5 52 C10.28 52 15.56 52 21 52 C21 48.7 21 45.4 21 42 C22.65 42 24.3 42 26 42 C26.01417969 42.80824219 26.02835938 43.61648437 26.04296875 44.44921875 C26.20702726 51.29148694 26.20702726 51.29148694 29.5 57.0625 C30.325 57.701875 31.15 58.34125 32 59 C33.28317892 62.84953676 33.06643637 65.94738135 33 70 C32.01 70 31.02 70 30 70 C29.9175 68.72125 29.835 67.4425 29.75 66.125 C29.44924711 62.86759098 29.44924711 62.86759098 27.25 60.625 C26.5075 60.41875 25.765 60.2125 25 60 C23.94292847 59.49194824 23.94292847 59.49194824 22.86450195 58.97363281 C19.18891767 57.72431634 15.75027725 57.75904315 11.91796875 57.796875 C10.33006993 57.78632452 8.74217876 57.77456775 7.15429688 57.76171875 C4.67239514 57.75142752 2.19156912 57.74996712 -0.2902832 57.77001953 C-16.93926257 57.87271943 -16.93926257 57.87271943 -22.59643555 52.87207031 C-26.72393884 47.36681805 -27.42520372 42.96766785 -27.29296875 36.3203125 C-27.28660149 35.10116653 -27.28660149 35.10116653 -27.28010559 33.85739136 C-27.26340804 31.27958041 -27.22577362 28.7025718 -27.1875 26.125 C-27.17244158 24.36980301 -27.1587552 22.61459369 -27.14648438 20.859375 C-27.11353392 16.57261087 -27.06181453 12.28644114 -27 8 C-25.35 8 -23.7 8 -22 8 C-21.9906543 9.02883301 -21.98130859 10.05766602 -21.97167969 11.11767578 C-21.93165231 14.95355712 -21.86585946 18.78864712 -21.79248047 22.62402344 C-21.76434438 24.28049514 -21.7430933 25.93709927 -21.72900391 27.59375 C-21.70747109 29.98245676 -21.66077245 32.36958386 -21.609375 34.7578125 C-21.60814636 35.49242706 -21.60691772 36.22704163 -21.60565186 36.98391724 C-21.46142681 42.10582162 -20.24405902 45.06099603 -17 49 C-12.65300102 52.2547839 -12.65300102 52.2547839 0 52 C0 34.84 0 17.68 0 0 Z " fill="#F1F7F7" transform="translate(113,92)"/>
<path d="M0 0 C1.98 0 3.96 0 6 0 C6 13.2 6 26.4 6 40 C14.58 40 23.16 40 32 40 C32.495 42.475 32.495 42.475 33 45 C23.76 45 14.52 45 5 45 C5 49.95 5 54.9 5 60 C3.35 60 1.7 60 0 60 C0 55.38 0 50.76 0 46 C-1.629375 46.12375 -3.25875 46.2475 -4.9375 46.375 C-11.41083598 46.375 -15.26703787 44.29910727 -20 40 C-26.48534095 32.3506235 -26.27997203 23.52481967 -26.125 14 C-26.11597656 12.93910156 -26.10695312 11.87820312 -26.09765625 10.78515625 C-26.07427524 8.18986362 -26.04150556 5.59505535 -26 3 C-24.35 2.67 -22.7 2.34 -21 2 C-20.9906543 2.74572266 -20.98130859 3.49144531 -20.97167969 4.25976562 C-20.9176397 7.6738215 -20.83405696 11.08655655 -20.75 14.5 C-20.73582031 15.67304688 -20.72164062 16.84609375 -20.70703125 18.0546875 C-20.52104721 24.67571927 -20.24219323 30.63123536 -16 36 C-11.22490885 40.13495489 -11.22490885 40.13495489 0 40 C0 26.8 0 13.6 0 0 Z " fill="#DFE6E7" transform="translate(65,128)"/>
<path d="M0 0 C7.83840337 2.13774637 12.49011232 9.34115678 16.73828125 15.7890625 C18.09167998 18.16065285 19.16994377 20.39606726 20 23 C19.505 24.485 19.505 24.485 19 26 C17.33333333 26 15.66666667 26 14 26 C14 28.93593133 14.22499427 31.76556416 14.5 34.6875 C14.5928125 35.68136719 14.685625 36.67523438 14.78125 37.69921875 C14.8534375 38.45847656 14.925625 39.21773437 15 40 C7.76237624 42.69306931 7.76237624 42.69306931 4 42 C0.93828369 39.07286462 0.05086186 37.49081694 -0.390625 33.23046875 C-0.36431837 31.88225415 -0.31701804 30.53430482 -0.25 29.1875 C-0.23195313 28.49462891 -0.21390625 27.80175781 -0.1953125 27.08789062 C-0.14851064 25.39132336 -0.07677624 23.69547524 0 22 C-0.66 22.33 -1.32 22.66 -2 23 C-4.27734375 22.765625 -4.27734375 22.765625 -6.9375 22.25 C-8.25041016 22.01023437 -8.25041016 22.01023437 -9.58984375 21.765625 C-12.22605525 20.9281899 -13.34548661 20.19356453 -15 18 C-15.4375 15.0625 -15.4375 15.0625 -15 12 C-13.125 9.625 -13.125 9.625 -11 8 C-10.34 8 -9.68 8 -9 8 C-8.67 7.01 -8.34 6.02 -8 5 C-8 5.66 -8 6.32 -8 7 C-6.02 6.67 -4.04 6.34 -2 6 C-2 6.66 -2 7.32 -2 8 C-0.35 8.33 1.3 8.66 3 9 C2.67 7.02 2.34 5.04 2 3 C1.34 3 0.68 3 0 3 C0 2.01 0 1.02 0 0 Z " fill="#2E414B" transform="translate(277,96)"/>
<path d="M0 0 C1.2065625 0.0309375 1.2065625 0.0309375 2.4375 0.0625 C2.4468457 0.98063477 2.45619141 1.89876953 2.46582031 2.84472656 C2.50989931 6.25955278 2.57153732 9.67313108 2.64501953 13.08740234 C2.67320088 14.56352196 2.69442966 16.03979169 2.70849609 17.51611328 C2.72996698 19.64173057 2.77663043 21.76554879 2.828125 23.890625 C2.8595459 25.8072998 2.8595459 25.8072998 2.89160156 27.76269531 C3.52394387 31.58502921 4.34864139 32.79324828 7.4375 35.0625 C10.7000342 35.7585228 10.7000342 35.7585228 14.1875 35.8125 C16.25 35.895 18.3125 35.9775 20.4375 36.0625 C20.4375 30.1225 20.4375 24.1825 20.4375 18.0625 C22.4175 18.0625 24.3975 18.0625 26.4375 18.0625 C26.4375 38.5225 26.4375 58.9825 26.4375 80.0625 C24.4575 80.0625 22.4775 80.0625 20.4375 80.0625 C20.4375 67.1925 20.4375 54.3225 20.4375 41.0625 C15.4875 41.0625 10.5375 41.0625 5.4375 41.0625 C0.51244269 38.27163419 -1.38683819 35.18870105 -3.5625 30.0625 C-3.91894531 26.73510742 -3.91894531 26.73510742 -3.890625 23.16796875 C-3.88546875 21.88341797 -3.8803125 20.59886719 -3.875 19.27539062 C-3.8646875 18.61514893 -3.854375 17.95490723 -3.84375 17.2746582 C-3.81231879 15.23825952 -3.80274633 13.20263396 -3.796875 11.16601562 C-3.7075107 0.09042709 -3.7075107 0.09042709 0 0 Z " fill="#DEE5E6" transform="translate(195.5625,76.9375)"/>
<path d="M0 0 C0.66 0 1.32 0 2 0 C2 12.54 2 25.08 2 38 C-10 38 -10 38 -13.625 35.8125 C-17.83747862 30.82403847 -18.28372032 26.5668358 -18.125 20.1875 C-18.11597656 19.49462891 -18.10695312 18.80175781 -18.09765625 18.08789062 C-18.07426157 16.39177605 -18.03839641 14.69584129 -18 13 C-17.67 14.32 -17.34 15.64 -17 17 C-16.01 17 -15.02 17 -14 17 C-13.67 15.68 -13.34 14.36 -13 13 C-12.4121875 13.99 -12.4121875 13.99 -11.8125 15 C-10.15526007 17.25469591 -10.15526007 17.25469591 -7.4375 17.375 C-4.82471891 17.21896136 -4.82471891 17.21896136 -3 15 C-2.35232207 12.42938689 -2.35232207 12.42938689 -2 10 C-1.34 10 -0.68 10 0 10 C0 6.7 0 3.4 0 0 Z " fill="#233941" transform="translate(63,130)"/>
<path d="M0 0 C1.32 0 2.64 0 4 0 C4 26.4 4 52.8 4 80 C4.66 80.33 5.32 80.66 6 81 C5.34 81 4.68 81 4 81 C4.01160156 81.69867188 4.02320313 82.39734375 4.03515625 83.1171875 C4.04869141 84.48230469 4.04869141 84.48230469 4.0625 85.875 C4.07410156 86.77992188 4.08570313 87.68484375 4.09765625 88.6171875 C4 91 4 91 3 93 C2.01 93 1.02 93 0 93 C-1.46507646 90.06984708 -1.0213589 87.32231769 -0.9375 84.09375 C-0.85499134 81.93974478 -0.85499134 81.93974478 -2 80 C-1.34 80 -0.68 80 0 80 C0 53.6 0 27.2 0 0 Z " fill="#F6FAFB" transform="translate(156,119)"/>
<path d="M0 0 C1.65 0 3.3 0 5 0 C5.0093457 1.02883301 5.01869141 2.05766602 5.02832031 3.11767578 C5.06834769 6.95355712 5.13414054 10.78864712 5.20751953 14.62402344 C5.23565562 16.28049514 5.2569067 17.93709927 5.27099609 19.59375 C5.29252891 21.98245676 5.33922755 24.36958386 5.390625 26.7578125 C5.39185364 27.49242706 5.39308228 28.22704163 5.39434814 28.98391724 C5.53857319 34.10582162 6.75594098 37.06099603 10 41 C13.40431947 43.26954631 15.16524202 43.36549949 19.1875 43.625 C20.27417969 43.69976562 21.36085938 43.77453125 22.48046875 43.8515625 C23.31191406 43.90054688 24.14335938 43.94953125 25 44 C25 44.33 25 44.66 25 45 C19.555 45.495 19.555 45.495 14 46 C14.33 46.99 14.66 47.98 15 49 C9.54219073 48.61015648 6.84460059 46.84460059 3 43 C-0.15289114 37.99085523 -0.40678904 34.04197531 -0.29296875 28.3203125 C-0.28872391 27.50754852 -0.28447906 26.69478455 -0.28010559 25.85739136 C-0.26340804 23.27958041 -0.22577362 20.7025718 -0.1875 18.125 C-0.17244158 16.36980301 -0.1587552 14.61459369 -0.14648438 12.859375 C-0.11353392 8.57261087 -0.06181453 4.28644114 0 0 Z " fill="#E6EDEE" transform="translate(86,100)"/>
<path d="M0 0 C1.65 0 3.3 0 5 0 C5.09948577 4.98041064 5.17175686 9.96023252 5.21972656 14.94140625 C5.2397406 16.63291511 5.26696073 18.32435567 5.30175781 20.015625 C5.35073065 22.45850554 5.37307033 24.90046511 5.390625 27.34375 C5.41127014 28.08991577 5.43191528 28.83608154 5.45318604 29.6048584 C5.45615727 36.68710037 3.00499476 41.70857741 -1.625 47 C-4 49 -4 49 -6 49 C-6 48.34 -6 47.68 -6 47 C-6.66 47 -7.32 47 -8 47 C-7 44 -7 44 -5.0625 42.1875 C-0.75710528 37.62117226 -0.68319879 31.97784706 -0.5859375 25.9765625 C-0.56657135 25.23038666 -0.5472052 24.48421082 -0.5272522 23.71542358 C-0.46787935 21.35206223 -0.4212422 18.98865103 -0.375 16.625 C-0.33678116 15.01430268 -0.2977272 13.40362494 -0.2578125 11.79296875 C-0.16221324 7.86213984 -0.078028 3.93121537 0 0 Z " fill="#ECF3F3" transform="translate(267,122)"/>
<path d="M0 0 C1.65 0 3.3 0 5 0 C5 7.26 5 14.52 5 22 C10.28 22 15.56 22 21 22 C21 18.7 21 15.4 21 12 C22.65 12 24.3 12 26 12 C26.495 17.94 26.495 17.94 27 24 C5.64507082 24.15449708 -15.65812072 23.68492204 -37 23 C-37 22.67 -37 22.34 -37 22 C-24.79 22 -12.58 22 0 22 C0 14.74 0 7.48 0 0 Z " fill="#E1E7E9" transform="translate(113,176)"/>
<path d="M0 0 C1.98 0 3.96 0 6 0 C6.03738281 1.12019531 6.07476562 2.24039063 6.11328125 3.39453125 C6.17894257 4.8672209 6.24538986 6.33987566 6.3125 7.8125 C6.33505859 8.55048828 6.35761719 9.28847656 6.38085938 10.04882812 C6.50746031 14.26502181 6.50746031 14.26502181 8.52734375 17.8203125 C9.25630859 18.40425781 9.25630859 18.40425781 10 19 C10.25265405 22.09501208 10.39935013 24.20129973 9 27 C7.39667209 27.08121924 5.79215974 27.13929134 4.1875 27.1875 C2.84751953 27.23970703 2.84751953 27.23970703 1.48046875 27.29296875 C-1 27 -1 27 -2.84375 25.71875 C-4 24 -4 24 -3.6875 20.3125 C-3.460625 19.219375 -3.23375 18.12625 -3 17 C-2.01 16.67 -1.02 16.34 0 16 C0 10.72 0 5.44 0 0 Z " fill="#7AC2CF" transform="translate(174,98)"/>
<path d="M0 0 C1.65 0 3.3 0 5 0 C5.06975957 10.65868126 4.86313961 21.28581109 4.5 31.9375 C4.45159923 33.41079996 4.4034212 34.88410726 4.35546875 36.35742188 C4.23953183 39.9050357 4.12063345 43.4525424 4 47 C4.99 47.33 5.98 47.66 7 48 C4.69 48 2.38 48 0 48 C-1.19835342 45.60329316 -1.08740203 44.22101577 -1.02172852 41.55029297 C-1.00163223 40.62948944 -0.98153595 39.70868591 -0.96083069 38.75997925 C-0.93379562 37.76410797 -0.90676056 36.76823669 -0.87890625 35.7421875 C-0.85529526 34.72399933 -0.83168427 33.70581116 -0.80735779 32.6567688 C-0.73061879 29.39604095 -0.64663844 26.13554451 -0.5625 22.875 C-0.50928957 20.66798018 -0.45654911 18.46094897 -0.40429688 16.25390625 C-0.27498984 10.83579347 -0.13973278 5.41785337 0 0 Z " fill="#F7FCFB" transform="translate(193,152)"/>
<path d="M0 0 C1.98 0 3.96 0 6 0 C6 10.89 6 21.78 6 33 C4.02 33 2.04 33 0 33 C0 22.11 0 11.22 0 0 Z " fill="#D9E0E1" transform="translate(155,60)"/>
<path d="M0 0 C1.32 0 2.64 0 4 0 C4 14.52 4 29.04 4 44 C2.68 44 1.36 44 0 44 C0 29.48 0 14.96 0 0 Z " fill="#FBFDFE" transform="translate(113,93)"/>
<path d="M0 0 C1.32 0 2.64 0 4 0 C4.01458252 0.74572266 4.02916504 1.49144531 4.04418945 2.25976562 C4.11915338 5.6736704 4.21565438 9.08664869 4.3125 12.5 C4.33505859 13.67304688 4.35761719 14.84609375 4.38085938 16.0546875 C4.58618727 22.69984477 5.20492322 27.94524923 8 34 C7.34 34 6.68 34 6 34 C6 34.66 6 35.32 6 36 C3.47602893 35.03021917 2.24970654 34.47116546 0.96191406 32.04125977 C-0.99828426 25.2499836 -1.39406171 18.98301815 -1.25 11.9375 C-1.24484375 10.89400391 -1.2396875 9.85050781 -1.234375 8.77539062 C-1.15494363 1.15494363 -1.15494363 1.15494363 0 0 Z " fill="#E8EFF0" transform="translate(40,130)"/>
<path d="M0 0 C1.625 1.125 1.625 1.125 2.625 3.125 C2.66522391 5.4579866 2.66820247 7.79206666 2.625 10.125 C0.375 11.3125 0.375 11.3125 -2.375 12.125 C-4.6875 10.75 -4.6875 10.75 -6.375 9.125 C-6.375 10.115 -6.375 11.105 -6.375 12.125 C-12.25 11.25 -12.25 11.25 -13.375 10.125 C-13.95979532 2.87353801 -13.95979532 2.87353801 -11.8125 0.125 C-7.77732308 -1.5304572 -4.08642988 -1.5055268 0 0 Z " fill="#687D86" transform="translate(302.375,184.875)"/>
<path d="M0 0 C2.4375 1.625 2.4375 1.625 4 4 C4.48288863 7.31123632 4.29618989 9.296549 3 12.375 C0.2897489 14.57707902 -1.70878117 14.51582761 -5.125 14.30859375 C-7 14 -7 14 -9 13 C-10.62932095 9.7413581 -10.52673518 6.56102656 -10 3 C-7.83165681 -1.08158719 -4.19361486 -0.51500533 0 0 Z " fill="#7FCBDC" transform="translate(180,153)"/>
<path d="M0 0 C4.36689189 1.42398649 4.36689189 1.42398649 5.875 3.9375 C6.24028977 7.3468712 6.4890629 9.81773824 4.8125 12.875 C1.67165674 14.59739792 -0.62318786 14.42898241 -4.125 13.9375 C-6.81340669 11.52482733 -7.9139607 9.89890127 -8.6875 6.375 C-8.125 3.9375 -8.125 3.9375 -6 1.5625 C-3.125 -0.0625 -3.125 -0.0625 0 0 Z " fill="#EFF3F4" transform="translate(116.125,74.0625)"/>
<path d="M0 0 C2.375 1.0625 2.375 1.0625 4 3 C4.42751128 6.42009021 4.60318593 8.83132725 3 11.9375 C-0.24021772 13.65886567 -3.41957756 13.52960415 -7 13 C-9 11.9375 -9 11.9375 -10 10 C-10.4375 6.5 -10.4375 6.5 -10 3 C-7.14353095 -0.40579002 -4.27097064 -0.53387133 0 0 Z " fill="#7BCADA" transform="translate(180,80)"/>
<path d="M0 0 C3.625 0.375 3.625 0.375 6.0625 2 C8.07314771 5.05618452 8.16020313 6.78149325 7.625 10.375 C6.625 12.25 6.625 12.25 4.625 13.375 C1.86629648 13.84053122 -0.61990136 13.87905131 -3.375 13.375 C-5.4375 11.8125 -5.4375 11.8125 -6.375 9.375 C-5.92413295 0.65823699 -5.92413295 0.65823699 0 0 Z " fill="#EFF4F5" transform="translate(114.375,157.625)"/>
<path d="M0 0 C3.625 0.375 3.625 0.375 6.0625 2 C8.07314771 5.05618452 8.16020313 6.78149325 7.625 10.375 C6.625 12.25 6.625 12.25 4.625 13.375 C1.86629648 13.84053122 -0.61990136 13.87905131 -3.375 13.375 C-5.4375 11.8125 -5.4375 11.8125 -6.375 9.375 C-5.92413295 0.65823699 -5.92413295 0.65823699 0 0 Z " fill="#F1F5F6" transform="translate(195.375,133.625)"/>
<path d="M0 0 C2.375 1.625 2.375 1.625 4 4 C4.44912849 7.14389944 4.504106 9.05480125 3 11.875 C-0.21775381 13.68498652 -3.40823552 13.67345584 -7 13 C-9.45636081 10.92744557 -9.88864581 9.63630966 -10.4375 6.5 C-9.41545969 0.65976965 -5.50319355 -0.91719892 0 0 Z " fill="#F0F4F3" transform="translate(139,170)"/>
<path d="M0 0 C2.5 1.5625 2.5 1.5625 4 4 C3.78571429 10.21428571 3.78571429 10.21428571 1 13 C-2.375 13.4375 -2.375 13.4375 -6 13 C-8.73018058 10.54983794 -9.83353574 8.99878555 -10.4375 5.375 C-10 3 -10 3 -8.9375 1.1875 C-5.86370782 -0.69643714 -3.51614342 -0.43180709 0 0 Z " fill="#EFF4F4" transform="translate(71,109)"/>
<path d="M0 0 C2.3125 1.625 2.3125 1.625 4 4 C4.50299316 8.10777749 4.32749345 9.50875983 2 13 C-1.03815585 13.63991518 -3.94351658 13.49730717 -7 13 C-9.125 11.375 -9.125 11.375 -10 9 C-9.92857348 5.50010028 -9.66021066 3.70736857 -7.25 1.125 C-4.50272993 -0.24863504 -3.03212094 -0.53062116 0 0 Z " fill="#EFF3F3" transform="translate(222,77)"/>
<path d="M0 0 C3.4375 0.9375 3.4375 0.9375 5.4375 2.0625 C7.0823094 5.14651762 6.21519676 7.64724448 5.4375 10.9375 C3.4375 12.9375 3.4375 12.9375 -0.5 13.25 C-3.04685809 13.1714218 -4.31954973 13.07415953 -6.5625 11.8125 C-8.066606 8.99230125 -8.01162849 7.08139944 -7.5625 3.9375 C-5.26874134 0.3592365 -4.28872478 -0.07524079 0 0 Z " fill="#ECF1F2" transform="translate(269.5625,104.0625)"/>
<path d="M0 0 C2.375 1.5625 2.375 1.5625 4 4 C3.93866496 7.4960972 3.65265114 9.93514814 1.8125 12.9375 C-0.91087907 14.5339636 -2.90953021 14.38630872 -6 14 C-7.6953125 12.76171875 -7.6953125 12.76171875 -9 11 C-9.1796875 8.80859375 -9.1796875 8.80859375 -8.875 6.4375 C-8.78992188 5.65246094 -8.70484375 4.86742188 -8.6171875 4.05859375 C-7.33364898 -0.22257586 -3.8953351 -0.57004904 0 0 Z " fill="#EEF4F4" transform="translate(139,116)"/>
<path d="M0 0 C2.375 1.5 2.375 1.5 4 3 C3.25 9.625 3.25 9.625 1 13 C-2.375 13.5 -2.375 13.5 -6 13 C-8.5 10.875 -8.5 10.875 -10 8 C-9.9375 4.8125 -9.9375 4.8125 -9 2 C-5.51131349 -0.32579101 -4.10281481 -0.41865457 0 0 Z " fill="#EFF4F4" transform="translate(92,82)"/>
<path d="M0 0 C2.60964149 1.03012164 3.83498357 1.58694861 5.375 3.9375 C5.91352618 7.55331862 5.79736225 9.27861489 3.8125 12.375 C1.375 13.9375 1.375 13.9375 -2.25 13.8125 C-5.625 12.9375 -5.625 12.9375 -7.625 10.9375 C-8.0625 7.5625 -8.0625 7.5625 -7.625 3.9375 C-5.12942843 1.08541821 -3.84213882 -0.0914795 0 0 Z " fill="#ECF1F3" transform="translate(137.625,88.0625)"/>
<path d="M0 0 C2.375 1.0625 2.375 1.0625 4 3 C4.43060657 6.44485259 4.63335287 8.84506242 2.9375 11.9375 C-0.11976176 13.6140629 -2.5906288 13.36528977 -6 13 C-7.9375 11.9375 -7.9375 11.9375 -9 10 C-9.63316583 4.09045226 -9.63316583 4.09045226 -7.875 1.0625 C-5.09808875 -0.51108304 -3.13770673 -0.38420899 0 0 Z " fill="#F1F5F6" transform="translate(45,112)"/>
<path d="M0 0 C1.32 0 2.64 0 4 0 C4.02468447 4.80549747 4.04285255 9.61095818 4.05493164 14.41650391 C4.05996621 16.05192711 4.06679427 17.6873458 4.07543945 19.32275391 C4.08754335 21.67090975 4.093237 24.01900619 4.09765625 26.3671875 C4.10281754 27.10057343 4.10797882 27.83395935 4.11329651 28.58956909 C4.11387171 33.77225659 4.11387171 33.77225659 3 36 C2.01 35.67 1.02 35.34 0 35 C0 23.45 0 11.9 0 0 Z " fill="#FAFDFD" transform="translate(66,128)"/>
<path d="M0 0 C3.375 0.875 3.375 0.875 5.375 2.875 C5.75 6.3125 5.75 6.3125 5.375 9.875 C3.14179398 12.53766871 1.7549883 12.82847082 -1.6875 13.25 C-4.625 12.875 -4.625 12.875 -6.5 11.75 C-8.17968045 8.95053259 -8.08242277 7.07695936 -7.625 3.875 C-5.30290294 0.25252859 -4.34513693 -0.14983231 0 0 Z " fill="#67C9DC" transform="translate(137.625,50.125)"/>
<path d="M0 0 C1.875 1.0625 1.875 1.0625 3 3 C3.4375 6.5 3.4375 6.5 3 10 C0.92308202 12.38460953 -0.40556916 12.8959746 -3.5 13.4375 C-6.89834723 12.84278924 -8.01241034 11.79734842 -10 9 C-10.5 5.9375 -10.5 5.9375 -10 3 C-7.09589708 -0.35088799 -4.27607914 -0.54588244 0 0 Z " fill="#EEF3F3" transform="translate(161,101)"/>
<path d="M0 0 C2.375 1.0625 2.375 1.0625 4 3 C4.375 6.5625 4.375 6.5625 4 10 C1.57477793 12.42522207 0.8279321 12.29629254 -2.5 12.3125 C-3.2940625 12.32925781 -4.088125 12.34601563 -4.90625 12.36328125 C-5.5971875 12.24339844 -6.288125 12.12351562 -7 12 C-9.31282587 8.53076119 -9.42478586 7.07794425 -9 3 C-6.78557651 -0.69070582 -4.02540619 -0.49290688 0 0 Z " fill="#EEF3F4" transform="translate(247,68)"/>
<path d="M0 0 C2.83171242 2.01200619 3.84987863 3.12071767 4.4375 6.5625 C4 9 4 9 2.9375 10.8125 C-0.09375543 12.67036623 -2.53422859 12.37133265 -6 12 C-7.9375 10.875 -7.9375 10.875 -9 9 C-9.39365568 5.85075452 -9.52854531 3.88090884 -7.875 1.125 C-5.07553259 -0.55468045 -3.20195936 -0.45742277 0 0 Z " fill="#F1F5F5" transform="translate(161,43)"/>
<path d="M0 0 C1.91015625 0.23046875 1.91015625 0.23046875 3.91015625 2.23046875 C4.28515625 5.66796875 4.28515625 5.66796875 3.91015625 9.23046875 C1.81093125 11.64069004 0.4793026 12.13329742 -2.65234375 12.66796875 C-5.08984375 12.23046875 -5.08984375 12.23046875 -6.96484375 10.66796875 C-8.54884759 7.23596044 -7.90915779 4.84910577 -7.08984375 1.23046875 C-5.19495423 -0.66442077 -2.51845229 0.05027763 0 0 Z " fill="#80C5D3" transform="translate(286.08984375,125.76953125)"/>
<path d="M0 0 C1.91015625 0.23046875 1.91015625 0.23046875 3.91015625 2.23046875 C4.22553341 6.56690476 4.35913472 8.55700104 1.91015625 12.23046875 C-1.68270716 12.77720883 -3.44809554 12.64184581 -6.52734375 10.66796875 C-8.08984375 8.23046875 -8.08984375 8.23046875 -7.90234375 4.54296875 C-6.5976534 -0.77615344 -5.23792615 0.1045684 0 0 Z " fill="#F0F4F5" transform="translate(197.08984375,60.76953125)"/>
<path d="M0 0 C5.94232331 -0.64825345 5.94232331 -0.64825345 8.9375 1.1875 C10.41359492 3.70554428 10.49089348 5.12476676 10 8 C7.97580677 10.77389443 6.84814923 11.85519403 3.4375 12.4375 C1 12 1 12 -0.8125 10.875 C-2.53501881 8.15523346 -2.32855599 6.15413751 -2 3 C-1.34 2.01 -0.68 1.02 0 0 Z " fill="#74C7D8" transform="translate(175,47)"/>
<path d="M0 0 C1.98 0 3.96 0 6 0 C6 6.27 6 12.54 6 19 C4.02 19 2.04 19 0 19 C0 12.73 0 6.46 0 0 Z " fill="#B7CDD6" transform="translate(174,130)"/>
<path d="M0 0 C2 2 2 2 2.3125 5.4375 C2 9 2 9 0.8125 10.9375 C-1.66049093 12.38718434 -3.17884512 12.42317323 -6 12 C-7.8125 10.875 -7.8125 10.875 -9 9 C-9.39365568 5.85075452 -9.52854531 3.88090884 -7.875 1.125 C-5.15781176 -0.50531294 -3.10347254 -0.33015665 0 0 Z " fill="#7FCCDA" transform="translate(235,107)"/>
<path d="M0 0 C1.32 0 2.64 0 4 0 C4 8.58 4 17.16 4 26 C2.68 26.33 1.36 26.66 0 27 C0 18.09 0 9.18 0 0 Z " fill="#FAFDFE" transform="translate(175,172)"/>
<path d="M0 0 C3.29714793 0.32971479 4.6226839 0.6226839 7 3 C7.55186722 9.07053942 7.55186722 9.07053942 5.8125 12 C4 13 4 13 1.4375 12.875 C-1 12 -1 12 -3 9 C-2.54716981 2.54716981 -2.54716981 2.54716981 0 0 Z " fill="#79C4D8" transform="translate(101,117)"/>
<path d="M0 0 C2 2 2 2 2.25 5.5 C2 9 2 9 0 11 C-3.13704316 11.333728 -5.16554166 11.52849028 -7.875 9.8125 C-9.40659584 7.34492892 -9.42822025 5.85480169 -9 3 C-6.73157826 -0.65467947 -4.03373275 -0.4291205 0 0 Z " fill="#7EC6D4" transform="translate(236,136)"/>
<path d="M0 0 C0.5775 0.763125 1.155 1.52625 1.75 2.3125 C4.96199123 6.14904508 6.58802416 7.80322464 11.671875 8.51171875 C13.03057652 8.58427077 14.3901067 8.64251298 15.75 8.6875 C16.79607422 8.73874023 16.79607422 8.73874023 17.86328125 8.79101562 C19.57497108 8.87308295 21.2874576 8.93822919 23 9 C22.67 9.66 22.34 10.32 22 11 C14.33333333 11 6.66666667 11 -1 11 C-1 11.66 -1 12.32 -1 13 C-2.32 13 -3.64 13 -5 13 C-5.33 13.99 -5.66 14.98 -6 16 C-7.32 15.34 -8.64 14.68 -10 14 C-9.67 12.35 -9.34 10.7 -9 9 C-6.36 9 -3.72 9 -1 9 C0.0730756 5.7807732 -0.20053275 5.09793558 -1 2 C-0.67 1.34 -0.34 0.68 0 0 Z " fill="#2B444C" transform="translate(193,109)"/>
<path d="M0 0 C2.5625 0.3125 2.5625 0.3125 4.4375 1.5 C5.5625 3.3125 5.5625 3.3125 5.375 5.875 C4.5625 8.3125 4.5625 8.3125 2.5625 10.3125 C0.125 10.6875 0.125 10.6875 -2.4375 10.3125 C-4.3125 8.5625 -4.3125 8.5625 -5.4375 6.3125 C-5.10894324 2.58885677 -3.89540945 0.49941147 0 0 Z " fill="#87C0CE" transform="translate(55.4375,137.6875)"/>
<path d="M0 0 C3.26914978 0.22545861 4.97919567 0.41828931 7.625 2.25 C9.1033226 5.20664519 8.68532783 7.99229737 8.625 11.25 C6.975 11.91 5.325 12.57 3.625 13.25 C2.965 12.26 2.305 11.27 1.625 10.25 C2.285 10.25 2.945 10.25 3.625 10.25 C3.191875 9.38375 3.191875 9.38375 2.75 8.5 C1.70833333 6.41666667 0.66666667 4.33333333 -0.375 2.25 C-2.025 2.25 -3.675 2.25 -5.375 2.25 C-3.375 0.25 -3.375 0.25 0 0 Z " fill="#788E97" transform="translate(296.375,183.75)"/>
<path d="M0 0 C1.65 0 3.3 0 5 0 C5 17.16 5 34.32 5 52 C3.35 52 1.7 52 0 52 C0 49.69 0 47.38 0 45 C1.32 45 2.64 45 4 45 C4 30.48 4 15.96 4 1 C2.68 0.67 1.36 0.34 0 0 Z " fill="#A2B0B6" transform="translate(113,92)"/>
<path d="M0 0 C1.875 0.8125 1.875 0.8125 2.875 2.8125 C3.0625 5.8125 3.0625 5.8125 2.875 8.8125 C2.215 9.4725 1.555 10.1325 0.875 10.8125 C-2.42214793 10.48278521 -3.7476839 10.1898161 -6.125 7.8125 C-5.90843634 4.99717241 -5.43627943 3.25718489 -3.8125 0.9375 C-2.125 -0.1875 -2.125 -0.1875 0 0 Z " fill="#79B2BF" transform="translate(285.125,148.1875)"/>
<path d="M0 0 C1.2375 0.1546875 1.2375 0.1546875 2.5 0.3125 C4.64915785 3.53623677 4.88286803 4.57953674 4.5 8.3125 C2.5 10.3125 2.5 10.3125 0 10.5625 C-2.5 10.3125 -2.5 10.3125 -4.5 8.3125 C-4.75 5.3125 -4.75 5.3125 -4.5 2.3125 C-2.5 0.3125 -2.5 0.3125 0 0 Z " fill="#A1D8E2" transform="translate(257.5,135.6875)"/>
<path d="M0 0 C0.66 0.33 1.32 0.66 2 1 C2.309375 2.155 2.61875 3.31 2.9375 4.5 C3.288125 5.655 3.63875 6.81 4 8 C4.99 8.33 5.98 8.66 7 9 C6 11 6 11 2.625 12.25 C1.42875 12.4975 0.2325 12.745 -1 13 C-1.99 12.34 -2.98 11.68 -4 11 C-3.125 4.25 -3.125 4.25 -2 2 C-1.34 2 -0.68 2 0 2 C0 1.34 0 0.68 0 0 Z " fill="#213641" transform="translate(31,104)"/>
<path d="M0 0 C1.65 0 3.3 0 5 0 C5 4.95 5 9.9 5 15 C3.35 15 1.7 15 0 15 C0 10.05 0 5.1 0 0 Z " fill="#91C4D3" transform="translate(134,68)"/>
<path d="M0 0 C3.875 1.875 3.875 1.875 5 3 C5.1875 5.9375 5.1875 5.9375 5 9 C4.34 9.66 3.68 10.32 3 11 C0.6171875 10.7578125 0.6171875 10.7578125 -2.125 10.125 C-3.03507813 9.92132813 -3.94515625 9.71765625 -4.8828125 9.5078125 C-5.93082031 9.25644531 -5.93082031 9.25644531 -7 9 C-5.71937515 7.2925002 -4.38232443 5.62626404 -3 4 C-2.34 4 -1.68 4 -1 4 C-0.67 2.68 -0.34 1.36 0 0 Z " fill="#77D2E0" transform="translate(179,154)"/>
<path d="M0 0 C1.65 0 3.3 0 5 0 C5 4.62 5 9.24 5 14 C3.35 14 1.7 14 0 14 C0 9.38 0 4.76 0 0 Z " fill="#B0C5CB" transform="translate(65,174)"/>
<path d="M0 0 C0.99 0.66 1.98 1.32 3 2 C3.3125 4.5 3.3125 4.5 3 7 C2.34 7.66 1.68 8.32 1 9 C1.33 9.99 1.66 10.98 2 12 C0 14 0 14 -3 15 C-3 11.7 -3 8.4 -3 5 C-3.66 4.67 -4.32 4.34 -5 4 C-4.67 3.01 -4.34 2.02 -4 1 C-3.01 1.33 -2.02 1.66 -1 2 C-0.67 1.34 -0.34 0.68 0 0 Z " fill="#1E333D" transform="translate(294,120)"/>
<path d="M0 0 C1.58493084 3.16986168 1.2940042 6.54032261 1 10 C0 12.5 0 12.5 -1 14 C-1.33 12.35 -1.66 10.7 -2 9 C-2.99 8.67 -3.98 8.34 -5 8 C-5 7.01 -5 6.02 -5 5 C-6.65 4.67 -8.3 4.34 -10 4 C-10 3.01 -10 2.02 -10 1 C-9.36191406 1.01160156 -8.72382813 1.02320312 -8.06640625 1.03515625 C-7.24011719 1.04417969 -6.41382813 1.05320312 -5.5625 1.0625 C-4.32693359 1.07990234 -4.32693359 1.07990234 -3.06640625 1.09765625 C-1.00836062 1.23267348 -1.00836062 1.23267348 0 0 Z " fill="#223740" transform="translate(277,117)"/>
<path d="M0 0 C2.31863625 0.3091515 3.81111669 0.87182918 5.75 2.1875 C7.54267046 4.78687216 7.20510719 6.92339216 7 10 C6.01 10.33 5.02 10.66 4 11 C4 10.34 4 9.68 4 9 C3.01 9.33 2.02 9.66 1 10 C0.67 9.34 0.34 8.68 0 8 C-1.32 8 -2.64 8 -4 8 C-2 2 -2 2 0 0 Z " fill="#1D323E" transform="translate(273,95)"/>
<path d="M0 0 C1.65 0 3.3 0 5 0 C5.33 3.96 5.66 7.92 6 12 C3.69 12 1.38 12 -1 12 C-0.67 8.04 -0.34 4.08 0 0 Z " fill="#EFF7F8" transform="translate(134,188)"/>
<path d="M0 0 C-0.66 3.63 -1.32 7.26 -2 11 C-3.65 11.33 -5.3 11.66 -7 12 C-7.33 8.7 -7.66 5.4 -8 2 C-2.25 0 -2.25 0 0 0 Z " fill="#264753" transform="translate(288,137)"/>
<path d="M0 0 C1.32 0 2.64 0 4 0 C4 5.28 4 10.56 4 16 C3.01 16 2.02 16 1 16 C-0.14077657 12.57767028 -0.09815117 9.91326783 -0.0625 6.3125 C-0.05347656 5.13300781 -0.04445312 3.95351562 -0.03515625 2.73828125 C-0.02355469 1.83464844 -0.01195312 0.93101563 0 0 Z " fill="#8EC9DA" transform="translate(175,98)"/>
<path d="M0 0 C3.66881155 0.70554068 6.70450534 2.27735506 10 4 C10 4.66 10 5.32 10 6 C11.32 6.66 12.64 7.32 14 8 C13.67 8.66 13.34 9.32 13 10 C11.68 9.34 10.36 8.68 9 8 C8.67 8.99 8.34 9.98 8 11 C6.125 10.4375 6.125 10.4375 4 9 C3.25740651 6.68970915 2.588562 4.354248 2 2 C1.34 1.34 0.68 0.68 0 0 Z " fill="#394E58" transform="translate(245,58)"/>
<path d="M0 0 C0.33 0 0.66 0 1 0 C1 5.94 1 11.88 1 18 C-1.66539421 16.6673029 -1.90872973 15.3361408 -3.0625 12.625 C-3.40410156 11.83351563 -3.74570313 11.04203125 -4.09765625 10.2265625 C-4.79400386 8.50830216 -5.4137135 6.7588595 -6 5 C-5.34 4.34 -4.68 3.68 -4 3 C-3.01 4.485 -3.01 4.485 -2 6 C-1.67 5.01 -1.34 4.02 -1 3 C-0.67 2.01 -0.34 1.02 0 0 Z " fill="#1F303A" transform="translate(111,111)"/>
<path d="M0 0 C1.65 0 3.3 0 5 0 C4.67 2.97 4.34 5.94 4 9 C4.66 9.33 5.32 9.66 6 10 C5.34 10 4.68 10 4 10 C4 10.66 4 11.32 4 12 C3.34 12 2.68 12 2 12 C2 12.66 2 13.32 2 14 C2.66 14 3.32 14 4 14 C4 14.66 4 15.32 4 16 C4.66 16.33 5.32 16.66 6 17 C5.34 17 4.68 17 4 17 C4 17.66 4 18.32 4 19 C2.125 18.6875 2.125 18.6875 0 18 C-0.66 17.01 -1.32 16.02 -2 15 C-1 12 -1 12 2 10 C2.39507893 5.65413172 2.45331002 3.67996503 0 0 Z " fill="#33484E" transform="translate(161,101)"/>
<path d="M0 0 C0.66 1.32 1.32 2.64 2 4 C0.9375 5.5625 0.9375 5.5625 -1 7 C-4.6875 6.6875 -4.6875 6.6875 -8 6 C-8.33 4.68 -8.66 3.36 -9 2 C-5.5647952 -0.29013653 -4.014669 -0.17842973 0 0 Z " fill="#324952" transform="translate(93,182)"/>
<path d="M0 0 C0.33 0.99 0.66 1.98 1 3 C1.66 3.33 2.32 3.66 3 4 C2.67 4.99 2.34 5.98 2 7 C-1.375 6.6875 -1.375 6.6875 -5 6 C-7 3 -7 3 -7 0 C-2.25 -1.125 -2.25 -1.125 0 0 Z " fill="#1B313D" transform="translate(162,94)"/>
<path d="M0 0 C2.4375 0.875 2.4375 0.875 3.75 2.9375 C4.0903125 3.8965625 4.0903125 3.8965625 4.4375 4.875 C3.4475 5.205 2.4575 5.535 1.4375 5.875 C0.7775 6.535 0.1175 7.195 -0.5625 7.875 C-3.1875 7.5 -3.1875 7.5 -5.5625 6.875 C-5.75 4.5 -5.75 4.5 -5.5625 1.875 C-2.5625 -0.125 -2.5625 -0.125 0 0 Z " fill="#75CBDC" transform="translate(285.5625,128.125)"/>
<path d="M0 0 C0.66 0 1.32 0 2 0 C4 4 6 8 8 12 C7.01 12 6.02 12 5 12 C4.67 12.66 4.34 13.32 4 14 C4 13.01 4 12.02 4 11 C3.01 11.33 2.02 11.66 1 12 C0 11 0 11 -0.09765625 8.49609375 C-0.08605469 7.48675781 -0.07445312 6.47742188 -0.0625 5.4375 C-0.05347656 4.42558594 -0.04445313 3.41367188 -0.03515625 2.37109375 C-0.02355469 1.58863281 -0.01195312 0.80617188 0 0 Z " fill="#253C46" transform="translate(273,126)"/>
<path d="M0 0 C1.65 0 3.3 0 5 0 C5 3.3 5 6.6 5 10 C3.35 10 1.7 10 0 10 C0 6.7 0 3.4 0 0 Z " fill="#8CA8B4" transform="translate(134,134)"/>
<path d="M0 0 C0.33 0.99 0.66 1.98 1 3 C2.32796291 3.35412344 3.66216607 3.68521554 5 4 C6.6875 5.0625 6.6875 5.0625 8 7 C8.98955002 12.03021258 9.13577159 15.95212628 8 21 C7.01 20.67 6.02 20.34 5 20 C5.66 20 6.32 20 7 20 C6.17482876 12.96757051 5.53959712 8.81070277 0 4 C0 2.68 0 1.36 0 0 Z " fill="#4B5E65" transform="translate(139,142)"/>
<path d="M0 0 C0.33 0 0.66 0 1 0 C1.35288435 3.7935068 1.28393415 5.55941253 -0.8125 8.8125 C-3 11 -3 11 -6 12 C-8.6875 10.0625 -8.6875 10.0625 -11 8 C-10.67 6.68 -10.34 5.36 -10 4 C-9.34 4.66 -8.68 5.32 -8 6 C-4.91652174 6.16681109 -4.91652174 6.16681109 -2 6 C-1.34 4.02 -0.68 2.04 0 0 Z " fill="#2E4F58" transform="translate(238,140)"/>
<path d="M0 0 C0.33 0 0.66 0 1 0 C1.06058594 0.89203125 1.12117187 1.7840625 1.18359375 2.703125 C1.26738281 3.87359375 1.35117188 5.0440625 1.4375 6.25 C1.51871094 7.41015625 1.59992188 8.5703125 1.68359375 9.765625 C1.86910017 12.866891 1.86910017 12.866891 2.71484375 15.1875 C3 17 3 17 1.8203125 18.921875 C1.26085937 19.52515625 0.70140625 20.1284375 0.125 20.75 C-0.70644531 21.67039062 -0.70644531 21.67039062 -1.5546875 22.609375 C-3 24 -3 24 -4 24 C-3.67 21.69 -3.34 19.38 -3 17 C-2.01 16.67 -1.02 16.34 0 16 C0 10.72 0 5.44 0 0 Z " fill="#6FA3B2" transform="translate(174,98)"/>
<path d="M0 0 C1.65 0 3.3 0 5 0 C5.1875 2.875 5.1875 2.875 5 6 C4.01 6.66 3.02 7.32 2 8 C1.26393501 11.56769552 1.26393501 11.56769552 1 15 C0.67 15 0.34 15 0 15 C0 10.05 0 5.1 0 0 Z " fill="#D0E4E8" transform="translate(216,182)"/>
<path d="M0 0 C1.70884005 1.62339805 3.37446717 3.29319053 5 5 C5 5.66 5 6.32 5 7 C4.34 7 3.68 7 3 7 C2.67 7.99 2.34 8.98 2 10 C-0.475 9.01 -0.475 9.01 -3 8 C-3 7.01 -3 6.02 -3 5 C-2.34 4.67 -1.68 4.34 -1 4 C-0.34786708 1.97536745 -0.34786708 1.97536745 0 0 Z " fill="#1D333F" transform="translate(205,53)"/>
<path d="M0 0 C2.375 1.0625 2.375 1.0625 4 3 C4.25 6.6875 4.25 6.6875 4 10 C3.67 10 3.34 10 3 10 C2.67 8.68 2.34 7.36 2 6 C1.01 6.495 1.01 6.495 0 7 C-0.33 5.02 -0.66 3.04 -1 1 C-4.37503669 2.1858237 -6.64722731 3.27573689 -9 6 C-9 4.68 -9 3.36 -9 2 C-5.51131349 -0.32579101 -4.10281481 -0.41865457 0 0 Z " fill="#7BC1D0" transform="translate(180,80)"/>
<path d="M0 0 C0.33 3.63 0.66 7.26 1 11 C-0.32 11.33 -1.64 11.66 -3 12 C-2.67 11.34 -2.34 10.68 -2 10 C-1.83330682 6.45828022 -1.83330682 6.45828022 -2 3 C-3.00836062 1.76732652 -3.00836062 1.76732652 -5.06640625 1.90234375 C-6.30197266 1.91974609 -6.30197266 1.91974609 -7.5625 1.9375 C-8.80193359 1.95103516 -8.80193359 1.95103516 -10.06640625 1.96484375 C-11.02353516 1.98224609 -11.02353516 1.98224609 -12 2 C-12 1.34 -12 0.68 -12 0 C-6.67839777 -1.87821255 -5.50158102 -2.20063241 0 0 Z " fill="#214553" transform="translate(291,125)"/>
<path d="M0 0 C0.33 0 0.66 0 1 0 C1 2.31 1 4.62 1 7 C-1.91482778 7.80967438 -3.46113217 8.21845993 -6.3125 7.0625 C-6.869375 6.711875 -7.42625 6.36125 -8 6 C-8 4.68 -8 3.36 -8 2 C-7.01 2.33 -6.02 2.66 -5 3 C-5 3.99 -5 4.98 -5 6 C-4.34 6 -3.68 6 -3 6 C-2.67 5.01 -2.34 4.02 -2 3 C-1.34 2.01 -0.68 1.02 0 0 Z " fill="#80CDDC" transform="translate(235,138)"/>
<path d="M0 0 C3.96 1.98 3.96 1.98 8 4 C7.34 5.98 6.68 7.96 6 10 C3.525 9.01 3.525 9.01 1 8 C1.020625 7.236875 1.04125 6.47375 1.0625 5.6875 C1.12942841 2.89814214 1.12942841 2.89814214 0 0 Z " fill="#1C323A" transform="translate(63,186)"/>
<path d="M0 0 C0.66 0.33 1.32 0.66 2 1 C1.79375 1.78375 1.5875 2.5675 1.375 3.375 C1.25125 4.24125 1.1275 5.1075 1 6 C1.66 6.66 2.32 7.32 3 8 C4.32 8 5.64 8 7 8 C7.66 6.02 8.32 4.04 9 2 C9.33 2 9.66 2 10 2 C10.36190476 7.42857143 10.36190476 7.42857143 8.8125 9.875 C6.34492892 11.40659584 4.85480169 11.42822025 2 11 C0.1875 9.875 0.1875 9.875 -1 8 C-1.25265405 4.90498792 -1.39935013 2.79870027 0 0 Z " fill="#8AC1CC" transform="translate(227,108)"/>
<path d="M0 0 C0.598125 0.309375 1.19625 0.61875 1.8125 0.9375 C4.08956772 2.10209704 4.08956772 2.10209704 7 3 C6.67 4.98 6.34 6.96 6 9 C4.68 8.67 3.36 8.34 2 8 C1.87625 7.360625 1.7525 6.72125 1.625 6.0625 C1.315625 5.0415625 1.315625 5.0415625 1 4 C0.34 3.67 -0.32 3.34 -1 3 C-0.67 2.01 -0.34 1.02 0 0 Z " fill="#1F343F" transform="translate(33,104)"/>
<path d="M0 0 C3.4375 0.875 3.4375 0.875 5.4375 3.875 C2.4375 5.875 2.4375 5.875 -0.5625 5.875 C-0.5625 5.215 -0.5625 4.555 -0.5625 3.875 C-3.5325 3.38 -3.5325 3.38 -6.5625 2.875 C-4.52251296 -0.12498094 -3.73399946 -0.13101752 0 0 Z " fill="#67B6C8" transform="translate(137.5625,50.125)"/>
<path d="M0 0 C-3.32307692 3.93846154 -3.32307692 3.93846154 -6.75 4.25 C-7.4925 4.1675 -8.235 4.085 -9 4 C-9.33 5.32 -9.66 6.64 -10 8 C-10.98120464 4.94736336 -10.98120464 3.05263664 -10 0 C-2.25 -1.125 -2.25 -1.125 0 0 Z " fill="#1F3538" transform="translate(164,56)"/>
<path d="M0 0 C0.66 0.33 1.32 0.66 2 1 C2 2.32 2 3.64 2 5 C2.99 5 3.98 5 5 5 C5 5.66 5 6.32 5 7 C4.34 7 3.68 7 3 7 C3 7.99 3 8.98 3 10 C2.01 10 1.02 10 0 10 C-0.19412181 8.52168779 -0.38012131 7.04230684 -0.5625 5.5625 C-0.66691406 4.73878906 -0.77132813 3.91507813 -0.87890625 3.06640625 C-0.91886719 2.38449219 -0.95882813 1.70257813 -1 1 C-0.67 0.67 -0.34 0.34 0 0 Z " fill="#819FAA" transform="translate(293,187)"/>
<path d="M0 0 C1.65 0 3.3 0 5 0 C4.67 2.64 4.34 5.28 4 8 C3.01 8.33 2.02 8.66 1 9 C-0.4783226 6.04335481 -0.06032783 3.25770263 0 0 Z " fill="#A7D0DF" transform="translate(134,68)"/>
<path d="M0 0 C4.29 0 8.58 0 13 0 C9 4 9 4 5.9375 4.4375 C3 4 3 4 1.125 2.5625 C0 1 0 1 0 0 Z " fill="#6CB6C3" transform="translate(130,59)"/>
<path d="M0 0 C2.64 0.33 5.28 0.66 8 1 C8 1.33 8 1.66 8 2 C6.865625 2.309375 5.73125 2.61875 4.5625 2.9375 C1.21224901 3.62924531 1.21224901 3.62924531 0 5 C-0.07179964 6.51928038 -0.08392007 8.04167482 -0.0625 9.5625 C-0.05347656 10.38878906 -0.04445312 11.21507812 -0.03515625 12.06640625 C-0.02355469 12.70449219 -0.01195312 13.34257812 0 14 C-0.99 14.495 -0.99 14.495 -2 15 C-2.33 11.37 -2.66 7.74 -3 4 C-2.34 4 -1.68 4 -1 4 C-0.67 2.68 -0.34 1.36 0 0 Z " fill="#234856" transform="translate(171,151)"/>
<path d="M0 0 C1.62580966 0.11398665 3.25067157 0.24155659 4.875 0.375 C5.77992188 0.44460937 6.68484375 0.51421875 7.6171875 0.5859375 C10 1 10 1 12 3 C10.21128822 3.38885039 8.41887126 3.76069196 6.625 4.125 C5.62726563 4.33382812 4.62953125 4.54265625 3.6015625 4.7578125 C2.74304688 4.83773437 1.88453125 4.91765625 1 5 C0.34 4.34 -0.32 3.68 -1 3 C-0.34 3 0.32 3 1 3 C0.67 2.01 0.34 1.02 0 0 Z " fill="#26414F" transform="translate(170,77)"/>
<path d="M0 0 C1.32 0 2.64 0 4 0 C4 2.64 4 5.28 4 8 C2.68 7.67 1.36 7.34 0 7 C0 4.69 0 2.38 0 0 Z " fill="#DAE8EC" transform="translate(66,180)"/>
<path d="M0 0 C2.31 0 4.62 0 7 0 C5.64978174 4.41889613 3.73884332 6.34345343 0 9 C0 5.79604584 0.74335022 3.90600261 2 1 C1.34 0.67 0.68 0.34 0 0 Z " fill="#6BC6D8" transform="translate(173,153)"/>
<path d="M0 0 C-0.33 1.98 -0.66 3.96 -1 6 C-1.66 6 -2.32 6 -3 6 C-3 5.01 -3 4.02 -3 3 C-4.65 3 -6.3 3 -8 3 C-7.67 2.01 -7.34 1.02 -7 0 C-4.3333581 -1.33332095 -2.83319697 -0.67102033 0 0 Z " fill="#1C3139" transform="translate(142,103)"/>
<path d="M0 0 C0 0.99 0 1.98 0 3 C-1.04800781 3.09087891 -1.04800781 3.09087891 -2.1171875 3.18359375 C-3.02726562 3.26738281 -3.93734375 3.35117188 -4.875 3.4375 C-5.77992188 3.51871094 -6.68484375 3.59992188 -7.6171875 3.68359375 C-10.01110861 3.86989285 -10.01110861 3.86989285 -12 5 C-11.67 4.01 -11.34 3.02 -11 2 C-7.24092359 0.37676246 -4.07913787 -0.23994929 0 0 Z " fill="#1D3540" transform="translate(262,173)"/>
<path d="M0 0 C2.67927341 4.01891012 2.15601248 6.24161923 2 11 C1.01 11 0.02 11 -1 11 C-2.25 3.375 -2.25 3.375 0 0 Z " fill="#BFCBCF" transform="translate(144,151)"/>
<path d="M0 0 C1.91015625 0.23046875 1.91015625 0.23046875 3.91015625 2.23046875 C3.53515625 4.35546875 3.53515625 4.35546875 2.91015625 6.23046875 C2.25015625 5.24046875 1.59015625 4.25046875 0.91015625 3.23046875 C0.14703125 3.45734375 -0.61609375 3.68421875 -1.40234375 3.91796875 C-2.28921875 4.02109375 -3.17609375 4.12421875 -4.08984375 4.23046875 C-5.90234375 2.79296875 -5.90234375 2.79296875 -7.08984375 1.23046875 C-5.19495423 -0.66442077 -2.51845229 0.05027763 0 0 Z " fill="#76BDCC" transform="translate(286.08984375,125.76953125)"/>
<path d="M0 0 C1.65 0 3.3 0 5 0 C5 1.98 5 3.96 5 6 C3.35 6 1.7 6 0 6 C0 4.02 0 2.04 0 0 Z " fill="#CFDDDF" transform="translate(134,106)"/>
<path d="M0 0 C2 2 2 2 2.125 5.125 C2.08375 6.07375 2.0425 7.0225 2 8 C-0.97 7.505 -0.97 7.505 -4 7 C-3.34 5.35 -2.68 3.7 -2 2 C-1.34 2 -0.68 2 0 2 C0 1.34 0 0.68 0 0 Z " fill="#375359" transform="translate(141,154)"/>
<path d="M0 0 C2.125 0.375 2.125 0.375 4 1 C3.01 2.485 3.01 2.485 2 4 C1.01 4 0.02 4 -1 4 C-0.67 5.98 -0.34 7.96 0 10 C-0.99 9.67 -1.98 9.34 -3 9 C-2.25 2.25 -2.25 2.25 0 0 Z " fill="#7BB3C6" transform="translate(101,117)"/>
<path d="M0 0 C-0.66 0 -1.32 0 -2 0 C-1.67 0.99 -1.34 1.98 -1 3 C-4.13349732 4.04449911 -4.98968256 3.93423645 -8 3 C-8 1.68 -8 0.36 -8 -1 C-3.375 -2.25 -3.375 -2.25 0 0 Z " fill="#3E4F57" transform="translate(143,113)"/>
<path d="M0 0 C1.65 0 3.3 0 5 0 C5.33 1.98 5.66 3.96 6 6 C3.69 6 1.38 6 -1 6 C-0.67 4.02 -0.34 2.04 0 0 Z " fill="#2F5562" transform="translate(134,83)"/>
<path d="M0 0 C1.29539465 2.13359119 2.03274515 3.47607754 1.875 6 C0.73959163 8.59521914 -0.91485678 10.11664483 -3 12 C-2.88648483 10.18674449 -2.75887039 8.37436643 -2.625 6.5625 C-2.55539063 5.55316406 -2.48578125 4.54382812 -2.4140625 3.50390625 C-2.27742187 2.67761719 -2.14078125 1.85132813 -2 1 C-1.34 0.67 -0.68 0.34 0 0 Z " fill="#1B333D" transform="translate(187,49)"/>
<path d="M0 0 C0.99 0.33 1.98 0.66 3 1 C3.75 2.9375 3.75 2.9375 4 5 C3.67 5.66 3.34 6.32 3 7 C1 6 -1 5 -3 4 C-2 2 -2 2 0 0 Z " fill="#58696F" transform="translate(42,180)"/>
<path d="M0 0 C0 0.33 0 0.66 0 1 C-1.65 1 -3.3 1 -5 1 C-5 2.32 -5 3.64 -5 5 C-7.5 7.25 -7.5 7.25 -10 9 C-10.35882213 5.77060081 -10.27258004 4.38790237 -8.375 1.6875 C-5.39542581 -0.42956587 -3.57763189 -0.32523926 0 0 Z " fill="#DAE6E9" transform="translate(139,170)"/>
<path d="M0 0 C2.31 0.66 4.62 1.32 7 2 C6.67 2.99 6.34 3.98 6 5 C6.66 5.66 7.32 6.32 8 7 C5.69 6.67 3.38 6.34 1 6 C0.67 4.02 0.34 2.04 0 0 Z " fill="#2D4652" transform="translate(171,165)"/>
<path d="M0 0 C1.32 0 2.64 0 4 0 C8 4 8 4 8 8 C7.34 8 6.68 8 6 8 C6 7.34 6 6.68 6 6 C5.01 6 4.02 6 3 6 C2.814375 5.071875 2.814375 5.071875 2.625 4.125 C2.12802644 1.80879168 2.12802644 1.80879168 0 0 Z " fill="#2A4756" transform="translate(292,186)"/>
<path d="M0 0 C3.5 0.25 3.5 0.25 5.5 2.25 C4.51 2.25 3.52 2.25 2.5 2.25 C1.84 3.57 1.18 4.89 0.5 6.25 C0.17 4.93 -0.16 3.61 -0.5 2.25 C-2.15 2.25 -3.8 2.25 -5.5 2.25 C-3.5 0.25 -3.5 0.25 0 0 Z " fill="#A4B7C1" transform="translate(296.5,183.75)"/>
<path d="M0 0 C2.64 0 5.28 0 8 0 C8 0.66 8 1.32 8 2 C9.32 2.33 10.64 2.66 12 3 C11.01 3.66 10.02 4.32 9 5 C8.34 4.34 7.68 3.68 7 3 C4.21697081 2.79127281 2.51281795 2.74359102 0 4 C0 2.68 0 1.36 0 0 Z " fill="#214450" transform="translate(51,136)"/>
<path d="M0 0 C0.33 0 0.66 0 1 0 C1.309375 1.11375 1.61875 2.2275 1.9375 3.375 C2.82326483 6.7945155 2.82326483 6.7945155 4 9 C2.35 9.33 0.7 9.66 -1 10 C-2.15837626 5.94568308 -1.83691257 3.78187881 0 0 Z " fill="#274350" transform="translate(225,110)"/>
<path d="M0 0 C1.65 0 3.3 0 5 0 C5.33 1.32 5.66 2.64 6 4 C4.02 4.99 4.02 4.99 2 6 C0 3 0 3 0 0 Z " fill="#122A36" transform="translate(155,94)"/>
<path d="M0 0 C1.67542976 0.28604898 3.34385343 0.61781233 5 1 C5 2.65 5 4.3 5 6 C4.67 5.34 4.34 4.68 4 4 C2.68 4.33 1.36 4.66 0 5 C-0.5625 3.0625 -0.5625 3.0625 -1 1 C-0.67 0.67 -0.34 0.34 0 0 Z " fill="#80CADB" transform="translate(53,141)"/>
<path d="M0 0 C1.32 0 2.64 0 4 0 C4 1.98 4 3.96 4 6 C2.68 6.33 1.36 6.66 0 7 C0 4.69 0 2.38 0 0 Z " fill="#B4C6C8" transform="translate(113,137)"/>
<path d="M0 0 C1.98 0 3.96 0 6 0 C6 1.65 6 3.3 6 5 C3.69 4.67 1.38 4.34 -1 4 C-0.67 2.68 -0.34 1.36 0 0 Z " fill="#15242E" transform="translate(175,126)"/>
<path d="M0 0 C1.5625 1.6875 1.5625 1.6875 3 4 C2.6875 6.75 2.6875 6.75 2 9 C1.01 8.67 0.02 8.34 -1 8 C-2.1875 4.9375 -2.1875 4.9375 -3 2 C-2.01 1.34 -1.02 0.68 0 0 Z " fill="#324248" transform="translate(76,109)"/>
<path d="M0 0 C0.33 1.32 0.66 2.64 1 4 C3.31 4.33 5.62 4.66 8 5 C8 5.99 8 6.98 8 8 C3.55063291 8.36075949 3.55063291 8.36075949 1.1875 6.8125 C-0.36678206 4.44017475 -0.22537188 2.77958655 0 0 Z " fill="#85C7D4" transform="translate(173,51)"/>
<path d="M0 0 C0 0.99 0 1.98 0 3 C-2.64 3 -5.28 3 -8 3 C-8 2.34 -8 1.68 -8 1 C-4.93251126 -0.86240388 -3.40254489 -1.2151946 0 0 Z " fill="#3D545D" transform="translate(93,184)"/>
<path d="M0 0 C0.99 0 1.98 0 3 0 C2.67 1.32 2.34 2.64 2 4 C2.66 4 3.32 4 4 4 C3.67 4.99 3.34 5.98 3 7 C2.01 6.67 1.02 6.34 0 6 C-0.38218767 4.34385343 -0.71395102 2.67542976 -1 1 C-0.67 0.67 -0.34 0.34 0 0 Z " fill="#77B9C8" transform="translate(282,151)"/>
<path d="M0 0 C1.485 0.99 1.485 0.99 3 2 C3.3125 5.5 3.3125 5.5 3 9 C2.34 9.66 1.68 10.32 1 11 C0.4254048 7.26513121 0 3.78706732 0 0 Z " fill="#7DBDC5" transform="translate(105,118)"/>
<path d="M0 0 C0.99 0.33 1.98 0.66 3 1 C2.34 2.65 1.68 4.3 1 6 C1.99 6.33 2.98 6.66 4 7 C3.01 7.99 2.02 8.98 1 10 C0.01 9.34 -0.98 8.68 -2 8 C-1.67 7.67 -1.34 7.34 -1 7 C-0.63239269 4.67182036 -0.29758419 2.3381615 0 0 Z " fill="#304248" transform="translate(122,78)"/>
<path d="M0 0 C3.66881155 0.70554068 6.70450534 2.27735506 10 4 C9.67 4.66 9.34 5.32 9 6 C7.02 6 5.04 6 3 6 C2.814375 5.071875 2.814375 5.071875 2.625 4.125 C2.12802644 1.80879168 2.12802644 1.80879168 0 0 Z " fill="#7C898F" transform="translate(245,58)"/>
<path d="M0 0 C0.99 0 1.98 0 3 0 C3.125 3.375 3.125 3.375 3 7 C2.34 7.66 1.68 8.32 1 9 C0.67 6.03 0.34 3.06 0 0 Z " fill="#E2E7E9" transform="translate(176,200)"/>
<path d="M0 0 C0.33 0.99 0.66 1.98 1 3 C2.94603274 3.59070014 2.94603274 3.59070014 5 4 C5.66 4.66 6.32 5.32 7 6 C6.01 7.485 6.01 7.485 5 9 C2.5 6.75 2.5 6.75 0 4 C0 2.68 0 1.36 0 0 Z " fill="#42565B" transform="translate(139,142)"/>
<path d="M0 0 C0.33 0 0.66 0 1 0 C1.185625 1.11375 1.37125 2.2275 1.5625 3.375 C2.036875 4.57125 2.51125 5.7675 3 7 C6.51400668 8.54086322 6.51400668 8.54086322 10 9 C10 9.33 10 9.66 10 10 C3.9453125 10.1953125 3.9453125 10.1953125 2 10 C0 8 0 8 -0.1953125 6.0546875 C-0.13020833 4.03645833 -0.06510417 2.01822917 0 0 Z " fill="#43545A" transform="translate(35,116)"/>
<path d="M0 0 C5.01113235 1.4317521 6.94469549 3.98445693 10 8 C8.35 7.67 6.7 7.34 5 7 C4.67 6.01 4.34 5.02 4 4 C1.98491642 3.26676204 1.98491642 3.26676204 0 3 C0 2.01 0 1.02 0 0 Z " fill="#969FA4" transform="translate(277,96)"/>
<path d="M0 0 C-1.125 1.5625 -1.125 1.5625 -3 3 C-6.64734979 2.77669287 -8.38372835 2.61627165 -11 0 C-9.54263913 -0.19491452 -8.08405407 -0.38069358 -6.625 -0.5625 C-5.81289062 -0.66691406 -5.00078125 -0.77132812 -4.1640625 -0.87890625 C-2 -1 -2 -1 0 0 Z " fill="#17333E" transform="translate(182,94)"/>
<path d="M0 0 C0 0.99 0 1.98 0 3 C0.31088368 4.67099977 0.64080332 6.33871537 1 8 C-0.32 8 -1.64 8 -3 8 C-3.66 8.66 -4.32 9.32 -5 10 C-4.38545304 6.00544473 -2.29353263 3.25533664 0 0 Z " fill="#889399" transform="translate(108,56)"/>
<path d="M0 0 C0.66 0.33 1.32 0.66 2 1 C-0.20841794 4.37074318 -2.39325122 6.19662561 -6 8 C-6.99 8 -7.98 8 -9 8 C-7.71034824 6.62437146 -6.37310707 5.29233607 -5 4 C-4.34 4 -3.68 4 -3 4 C-3 3.34 -3 2.68 -3 2 C-2.01 1.34 -1.02 0.68 0 0 Z " fill="#97A0A3" transform="translate(124,40)"/>
<path d="M0 0 C0.928125 0.20625 1.85625 0.4125 2.8125 0.625 C0.1269406 3.3105594 -2.56371328 3.68549974 -6.1875 4.625 C-6.1875 3.635 -6.1875 2.645 -6.1875 1.625 C-3.1875 -0.375 -3.1875 -0.375 0 0 Z " fill="#6C7A80" transform="translate(263.1875,191.375)"/>
<path d="M0 0 C2.00720923 0.28674418 4.0085944 0.61866701 6 1 C4.37660195 2.70884005 2.70680947 4.37446717 1 6 C0.34 6 -0.32 6 -1 6 C-1.042721 4.33388095 -1.04063832 2.66617115 -1 1 C-0.67 0.67 -0.34 0.34 0 0 Z " fill="#6C787E" transform="translate(274,182)"/>
<path d="M0 0 C0.66 0 1.32 0 2 0 C1.34 1.65 0.68 3.3 0 5 C-2.64 4.67 -5.28 4.34 -8 4 C-8 3.67 -8 3.34 -8 3 C-6.865625 2.690625 -5.73125 2.38125 -4.5625 2.0625 C-1.21224901 1.37075469 -1.21224901 1.37075469 0 0 Z " fill="#2F4348" transform="translate(121,168)"/>
<path d="M0 0 C2.1385485 2.1385485 2.42655063 3.13275314 3 6 C1.02 6.99 1.02 6.99 -1 8 C-1 7.34 -1 6.68 -1 6 C-1.99 6 -2.98 6 -4 6 C-3.67 5.34 -3.34 4.68 -3 4 C-2.01 4.33 -1.02 4.66 0 5 C0 3.35 0 1.7 0 0 Z " fill="#364B53" transform="translate(147,158)"/>
<path d="M0 0 C1 2 1 2 0.9375 4.9375 C0.72907405 8.17601934 0.72907405 8.17601934 3 11 C2.01 11.495 2.01 11.495 1 12 C-0.32 10.35 -1.64 8.7 -3 7 C-2.01 4.69 -1.02 2.38 0 0 Z " fill="#4D6167" transform="translate(130,119)"/>
<path d="M0 0 C-3.46741134 2.95749791 -6.86873527 5.07848152 -11 7 C-10.34 5.68 -9.68 4.36 -9 3 C-8.34 3 -7.68 3 -7 3 C-7 2.34 -7 1.68 -7 1 C-3.375 -1.125 -3.375 -1.125 0 0 Z " fill="#A7AEB2" transform="translate(84,71)"/>
<path d="M0 0 C0.66 0 1.32 0 2 0 C2.33 0.66 2.66 1.32 3 2 C3.99 2 4.98 2 6 2 C6.33 3.98 6.66 5.96 7 8 C6.34 8 5.68 8 5 8 C5 7.34 5 6.68 5 6 C4.34 6 3.68 6 3 6 C2.01 4.02 1.02 2.04 0 0 Z " fill="#889499" transform="translate(30,172)"/>
<path d="M0 0 C2.1519437 3.22791555 2.20086443 4.28400809 2 8 C1.01 8.33 0.02 8.66 -1 9 C-1.66 8.01 -2.32 7.02 -3 6 C-2.34 5.67 -1.68 5.34 -1 5 C-0.34444881 2.47266765 -0.34444881 2.47266765 0 0 Z " fill="#76838B" transform="translate(297,122)"/>
<path d="M0 0 C2.64 0 5.28 0 8 0 C6.68 1.32 5.36 2.64 4 4 C2.68 3.34 1.36 2.68 0 2 C0 1.34 0 0.68 0 0 Z " fill="#1A3138" transform="translate(267,118)"/>
<path d="M0 0 C0.33 0 0.66 0 1 0 C1.33 1.65 1.66 3.3 2 5 C2.99 4.67 3.98 4.34 5 4 C5 5.32 5 6.64 5 8 C3.35 8 1.7 8 0 8 C0 5.36 0 2.72 0 0 Z " fill="#81B0BF" transform="translate(134,75)"/>
<path d="M0 0 C0.99 0.33 1.98 0.66 3 1 C3 2.32 3 3.64 3 5 C1.02 4.34 -0.96 3.68 -3 3 C-2 1 -2 1 0 0 Z " fill="#6C7980" transform="translate(50,187)"/>
<path d="M0 0 C1.98 0.66 3.96 1.32 6 2 C5.67 2.66 5.34 3.32 5 4 C2.36 4 -0.28 4 -3 4 C-2.01 3.67 -1.02 3.34 0 3 C0 2.01 0 1.02 0 0 Z " fill="#78C0CB" transform="translate(176,163)"/>
<path d="M0 0 C1.65 0 3.3 0 5 0 C5 1.65 5 3.3 5 5 C3.68 5 2.36 5 1 5 C0.67 3.35 0.34 1.7 0 0 Z " fill="#29444D" transform="translate(108,139)"/>
<path d="M0 0 C1.32 0 2.64 0 4 0 C4 0.66 4 1.32 4 2 C3.34 2 2.68 2 2 2 C1.67 3.32 1.34 4.64 1 6 C0.34 6 -0.32 6 -1 6 C-1.042721 4.33388095 -1.04063832 2.66617115 -1 1 C-0.67 0.67 -0.34 0.34 0 0 Z " fill="#71C1D4" transform="translate(131,53)"/>
<path d="M0 0 C4 4.625 4 4.625 4 8 C3.34 8 2.68 8 2 8 C0.93224776 6.03533587 -0.06553465 4.03144641 -1 2 C-0.67 1.34 -0.34 0.68 0 0 Z " fill="#425458" transform="translate(193,109)"/>
<path d="M0 0 C0.66 0.33 1.32 0.66 2 1 C1.34 2.32 0.68 3.64 0 5 C-0.66 5 -1.32 5 -2 5 C-2 5.99 -2 6.98 -2 8 C-2.66 8 -3.32 8 -4 8 C-3.34 6.02 -2.68 4.04 -2 2 C-1.34 2 -0.68 2 0 2 C0 1.34 0 0.68 0 0 Z " fill="#90999E" transform="translate(31,104)"/>
<path d="M0 0 C0.66 0.66 1.32 1.32 2 2 C4.65537372 2.56520003 7.29144713 2.73788198 10 3 C10 3.33 10 3.66 10 4 C6.37 4.33 2.74 4.66 -1 5 C-0.67 3.35 -0.34 1.7 0 0 Z " fill="#4D6065" transform="translate(238,77)"/>
<path d="M0 0 C1.32 0.33 2.64 0.66 4 1 C-0.75 5.875 -0.75 5.875 -3 7 C-3 6.01 -3 5.02 -3 4 C-2.34 4 -1.68 4 -1 4 C-0.67 2.68 -0.34 1.36 0 0 Z " fill="#19383F" transform="translate(133,64)"/>
<path d="M0 0 C1.65 0 3.3 0 5 0 C4.67 1.32 4.34 2.64 4 4 C2.68 4 1.36 4 0 4 C0 2.68 0 1.36 0 0 Z " fill="#90ABB1" transform="translate(65,174)"/>
<path d="M0 0 C0.99 0.33 1.98 0.66 3 1 C2.34 2.65 1.68 4.3 1 6 C-0.32 4.68 -1.64 3.36 -3 2 C-2.01 1.34 -1.02 0.68 0 0 Z " fill="#334750" transform="translate(121,156)"/>
<path d="M0 0 C0.33 0.66 0.66 1.32 1 2 C0.0625 4.125 0.0625 4.125 -1 6 C-3.64 5.34 -6.28 4.68 -9 4 C-9 3.67 -9 3.34 -9 3 C-7.88625 2.87625 -6.7725 2.7525 -5.625 2.625 C-1.96896323 2.3534187 -1.96896323 2.3534187 0 0 Z " fill="#55686D" transform="translate(202,144)"/>
<path d="M0 0 C1.32 0 2.64 0 4 0 C4 1.32 4 2.64 4 4 C2.68 4.33 1.36 4.66 0 5 C0 3.35 0 1.7 0 0 Z " fill="#416A79" transform="translate(282,144)"/>
<path d="M0 0 C0 1.98 0 3.96 0 6 C-1.32 5.67 -2.64 5.34 -4 5 C-3.625 3.0625 -3.625 3.0625 -3 1 C-1 0 -1 0 0 0 Z " fill="#21404C" transform="translate(227,139)"/>
<path d="M0 0 C0.33 1.32 0.66 2.64 1 4 C0.01 3.34 -0.98 2.68 -2 2 C-1.34 1.34 -0.68 0.68 0 0 Z M-3 5 C-2.34 5 -1.68 5 -1 5 C-1 6.32 -1 7.64 -1 9 C-1.99 8.67 -2.98 8.34 -4 8 C-3.67 7.01 -3.34 6.02 -3 5 Z " fill="#2F4248" transform="translate(164,52)"/>
<path d="M0 0 C2 1.1875 2 1.1875 4 3 C4.25 5.6875 4.25 5.6875 4 8 C3.01 8.495 3.01 8.495 2 9 C1.34 6.03 0.68 3.06 0 0 Z " fill="#6FB8C1" transform="translate(181,47)"/>
<path d="M0 0 C2.64 0 5.28 0 8 0 C8.66 1.65 9.32 3.3 10 5 C9.278125 4.525625 8.55625 4.05125 7.8125 3.5625 C5.10524774 2.05847097 3.03805725 1.43400818 0 1 C0 0.67 0 0.34 0 0 Z " fill="#153A45" transform="translate(175,45)"/>
<path d="M0 0 C0.556875 0.226875 1.11375 0.45375 1.6875 0.6875 C-0.6225 2.0075 -2.9325 3.3275 -5.3125 4.6875 C-5.9725 4.0275 -6.6325 3.3675 -7.3125 2.6875 C-2.88173077 -0.38942308 -2.88173077 -0.38942308 0 0 Z " fill="#929C9F" transform="translate(133.3125,36.3125)"/>
</svg>
